<?xml version="1.0" encoding="UTF-8" standalone="no"?>
<svg
   xmlns:dc="http://purl.org/dc/elements/1.1/"
   xmlns:cc="http://creativecommons.org/ns#"
   xmlns:rdf="http://www.w3.org/1999/02/22-rdf-syntax-ns#"
   xmlns:svg="http://www.w3.org/2000/svg"
   xmlns="http://www.w3.org/2000/svg"
   xmlns:sodipodi="http://sodipodi.sourceforge.net/DTD/sodipodi-0.dtd"
   xmlns:inkscape="http://www.inkscape.org/namespaces/inkscape"
   viewBox="0 0 24 24"
   fill="black"
   width="18px"
   height="18px"
   version="1.1"
   id="svg6"
   sodipodi:docname="AVROTROS.svg"
   inkscape:version="0.92.4 (5da689c313, 2019-01-14)">
  <metadata
     id="metadata12">
    <rdf:RDF>
      <cc:Work
         rdf:about="">
        <dc:format>image/svg+xml</dc:format>
        <dc:type
           rdf:resource="http://purl.org/dc/dcmitype/StillImage" />
        <dc:title></dc:title>
      </cc:Work>
    </rdf:RDF>
  </metadata>
  <defs
     id="defs10" />
  <sodipodi:namedview
     pagecolor="#ffffff"
     bordercolor="#666666"
     borderopacity="1"
     objecttolerance="10"
     gridtolerance="10"
     guidetolerance="10"
     inkscape:pageopacity="0"
     inkscape:pageshadow="2"
     inkscape:window-width="1680"
     inkscape:window-height="987"
     id="namedview8"
     showgrid="false"
     inkscape:snap-bbox="true"
     inkscape:bbox-nodes="true"
     inkscape:snap-bbox-edge-midpoints="true"
     inkscape:bbox-paths="true"
     inkscape:zoom="29.261454"
     inkscape:cx="5.0838732"
     inkscape:cy="7.6003383"
     inkscape:window-x="-8"
     inkscape:window-y="-8"
     inkscape:window-maximized="1"
     inkscape:current-layer="svg6" />
  <path
     d="M0 0h24v24H0z"
     fill="none"
     id="path2" />
  <path
     inkscape:connector-curvature="0"
     style="fill:#000000;fill-rule:evenodd;stroke-width:0.12358466;fill-opacity:1"
     d="m 9.9794586,12.129467 c 0.1170344,0 0.1674574,0.05116 0.1677044,0.169558 4.92e-4,0.288818 4.92e-4,0.577634 0,0.866575 -2.5e-4,0.124821 -0.04783,0.172155 -0.1710409,0.172278 h -1.183323 v 2.928462 c 0,0.141875 -0.040166,0.182658 -0.1799392,0.182658 -0.3527109,1.2e-4 -0.7055451,2.5e-4 -1.0582559,0 -0.1314942,0 -0.1748723,-0.04326 -0.1748723,-0.174254 l -1.205e-4,-1.417146 v -1.51972 H 6.1970267 c -0.1239554,0 -0.1711651,-0.04697 -0.1715357,-0.172153 -4.912e-4,-0.288818 -4.912e-4,-0.577759 0,-0.866576 3.706e-4,-0.119012 0.050178,-0.169682 0.1680753,-0.169682 1.2617991,-3.71e-4 2.5238459,-3.71e-4 3.785769,0 z m 2.4105194,0.0035 c 0.332195,0.0043 0.642639,0.09269 0.89537,0.322309 0.222205,0.201938 0.320826,0.465173 0.33714,0.758811 0.01792,0.321567 -0.04276,0.622865 -0.263731,0.873619 -0.03583,0.04053 -0.07662,0.07736 -0.118887,0.111227 -0.03189,0.02546 -0.0351,0.0482 -0.01915,0.0849 0.132606,0.303524 0.262493,0.608036 0.394976,0.911684 0.05833,0.13347 0.02224,0.192669 -0.122348,0.192792 -0.307726,1.21e-4 -0.615576,2.49e-4 -0.923301,-1.21e-4 -0.110362,0 -0.138786,-0.0199 -0.180929,-0.123585 -0.09887,-0.243091 -0.199341,-0.485688 -0.295614,-0.730014 -0.02076,-0.05265 -0.0482,-0.07205 -0.104676,-0.06971 -0.111103,0.0043 -0.222576,0.0053 -0.333678,-2.49e-4 -0.06797,-0.0033 -0.08305,0.02224 -0.08206,0.08527 0.0033,0.220228 0.0015,0.440332 0.0013,0.660559 -2.5e-4,0.129765 -0.04646,0.177593 -0.173266,0.177716 -0.258044,4.91e-4 -0.516089,3.7e-4 -0.774133,0 -0.12754,-1.2e-4 -0.17376,-0.04746 -0.17376,-0.177468 v -2.897683 c 0,-0.13792 0.04523,-0.18377 0.182534,-0.183647 0.584802,2.51e-4 1.169605,-0.0041 1.754284,0.0036 z m 3.129657,0.02571 c 0.439097,0.118641 0.742374,0.469498 0.803176,0.921324 0.03362,0.249764 0.02818,0.496192 -0.05352,0.736193 -0.140269,0.411538 -0.436255,0.640664 -0.857678,0.713949 -0.109002,0.01903 -0.22097,0.02064 -0.331578,0.03015 -0.229991,-0.0037 -0.453308,-0.03089 -0.664391,-0.129887 -0.297468,-0.13965 -0.485935,-0.371619 -0.572196,-0.684659 -0.08601,-0.311681 -0.07885,-0.624102 0.03794,-0.927502 0.151392,-0.392752 0.451579,-0.611744 0.85669,-0.683547 0.259651,-0.04609 0.523133,-0.04572 0.781548,0.02398 z m -0.793785,0.931581 c -0.06451,0.151885 -0.06772,0.30958 -0.01161,0.464061 0.05562,0.152998 0.18031,0.228384 0.357777,0.227148 l 0.02707,-7.42e-4 c 0.172648,-0.0083 0.289559,-0.09615 0.332196,-0.256686 0.0157,-0.05883 0.01978,-0.120742 0.03029,-0.188219 -0.01124,-0.06476 -0.01718,-0.135943 -0.03658,-0.203421 -0.04239,-0.147189 -0.148302,-0.232709 -0.297592,-0.249146 l -0.02534,-0.0021 c -0.176851,-0.01013 -0.314277,0.06302 -0.376192,0.209104 z m 2.936373,-0.896856 c 0.155098,0.06451 0.243214,0.191556 0.261257,0.361485 0.0078,0.07341 -0.01705,0.10035 -0.0917,0.101216 -0.120618,0.0013 -0.241361,-8.57e-4 -0.362102,7.42e-4 -0.04721,6.28e-4 -0.07291,-0.01941 -0.08972,-0.06327 -0.03856,-0.100104 -0.23061,-0.132236 -0.300929,-0.0519 -0.04671,0.05314 -0.01483,0.125934 0.06971,0.14546 0.09442,0.02175 0.191432,0.0325 0.285727,0.05438 0.09171,0.02126 0.18686,0.0393 0.271269,0.07884 0.172401,0.08071 0.257055,0.224429 0.253226,0.416481 -0.0039,0.197611 -0.100352,0.343564 -0.276954,0.419198 -0.310569,0.133224 -0.628922,0.12272 -0.938873,-0.0042 -0.156952,-0.06427 -0.238766,-0.195881 -0.251124,-0.366552 -0.0056,-0.07773 0.01891,-0.103316 0.09689,-0.104552 0.0639,-9.71e-4 0.127786,-2.51e-4 0.191679,-1.21e-4 0.0639,0 0.127911,9.71e-4 0.191804,-3.7e-4 0.04437,-8.57e-4 0.06747,0.0173 0.08157,0.06105 0.03386,0.105665 0.224925,0.143729 0.302783,0.0629 0.04523,-0.0472 0.02818,-0.128899 -0.03794,-0.147807 -0.09306,-0.02657 -0.189084,-0.04165 -0.283627,-0.06327 -0.07601,-0.0173 -0.153615,-0.03078 -0.226653,-0.05685 -0.177962,-0.06327 -0.301794,-0.177962 -0.316006,-0.378169 -0.01533,-0.215408 0.07872,-0.377922 0.27312,-0.462702 0.295121,-0.128898 0.599634,-0.125314 0.896484,-0.002 z m -5.663885,0.871271 -0.08984,6.28e-4 v -3.7e-4 l -0.184389,4.91e-4 -0.09207,-0.0013 c -0.04214,-9.7e-4 -0.05883,0.01236 -0.05833,0.05635 0.002,0.146448 0.0023,0.292896 0,0.439343 -8.56e-4,0.04968 0.02187,0.05871 0.06451,0.05833 0.114934,-0.0011 0.229867,0 0.344924,-3.71e-4 l 0.172525,-0.0017 c 0.05091,-9.71e-4 0.103811,-0.01162 0.152009,-0.02842 0.07835,-0.02719 0.128899,-0.08404 0.147931,-0.167209 0.04313,-0.187849 -0.06476,-0.33615 -0.256192,-0.353329 l -0.02163,-0.0013 c -0.05969,-0.0023 -0.119629,-0.0018 -0.179568,-0.0013 z m 5.640157,-2.690066 c 0.22517,0.128528 0.332195,0.335409 0.359507,0.587521 0.0042,0.03967 4.63e-4,0.08033 4.63e-4,0.120495 0.0078,0.214172 -0.04078,0.414009 -0.199219,0.564287 -0.08181,0.07761 -0.183523,0.145336 -0.288693,0.185007 -0.218128,0.08218 -0.448119,0.08255 -0.669211,0.0099 -0.325769,-0.106901 -0.506821,-0.359508 -0.50917,-0.71642 -8.56e-4,-0.134461 0.02373,-0.274605 0.06587,-0.402516 0.07119,-0.215778 0.232215,-0.354934 0.449849,-0.418086 0.270897,-0.07848 0.53957,-0.07353 0.790571,0.06983 z M 9.1833265,7.5510266 c 0.1035641,0 0.1520092,0.034233 0.1878485,0.128899 0.1586827,0.4182105 0.318478,0.8358031 0.4758009,1.2543843 0.2788071,0.7420022 0.5558841,1.4846221 0.8344441,2.2267481 0.06723,0.179445 0.136684,0.358148 0.205892,0.536851 0.04697,0.121114 0.0068,0.181547 -0.124203,0.18167 -0.395471,4.91e-4 -0.7909419,3.71e-4 -1.1864127,0 -0.1099905,-2.5e-4 -0.1453358,-0.02571 -0.1817931,-0.132235 -0.055981,-0.163379 -0.1119676,-0.326882 -0.1646149,-0.491249 -0.015323,-0.04795 -0.037694,-0.06674 -0.090464,-0.06649 -0.4736998,0.0022 -0.9472763,0.0021 -1.4209768,1.21e-4 -0.05425,-2.51e-4 -0.079712,0.01693 -0.095531,0.06921 -0.050173,0.165109 -0.1050467,0.328982 -0.1586827,0.493103 -0.032131,0.09825 -0.069083,0.127045 -0.1705465,0.127292 -0.385955,8.57e-4 -0.7720333,8.57e-4 -1.1579883,0 -0.12136,-1.21e-4 -0.1618956,-0.05809 -0.1202474,-0.17512 0.110855,-0.312175 0.2246765,-0.623361 0.33615,-0.935288 C 6.5780381,10.136167 6.8030858,9.503167 7.0288748,8.8702899 7.1712441,8.4713586 7.3137374,8.0725512 7.4568487,7.6737432 7.4877461,7.5874811 7.5407623,7.551271 7.6345633,7.5510238 c 0.2605164,-3.707e-4 0.5210329,0 0.7815495,0 0.2558201,0 0.5115168,-3.707e-4 0.7672137,0 z m 4.8375975,1.9689507 c 0.471105,0.00148 0.942457,-0.00297 1.413067,0.015077 0.223565,0.00853 0.428468,0.099239 0.585791,0.2704028 0.277819,0.3021649 0.301176,0.9124259 -0.06302,1.2116239 -0.03831,0.03127 -0.04326,0.0571 -0.02348,0.101711 0.0891,0.201195 0.174995,0.403751 0.260764,0.606306 0.04609,0.108754 0.01459,0.154233 -0.105418,0.15448 -0.210835,4.92e-4 -0.421424,3.71e-4 -0.632259,0 -0.10925,-2.5e-4 -0.128281,-0.01607 -0.167704,-0.115428 -0.0655,-0.164985 -0.132483,-0.329353 -0.201443,-0.492855 -0.0084,-0.02014 -0.03213,-0.04733 -0.04981,-0.0482 -0.103564,-0.0045 -0.207375,-0.0021 -0.322555,-0.0021 v 0.500889 c 0,0.123708 -0.0325,0.157323 -0.153987,0.157694 -0.175243,4.91e-4 -0.350486,7.42e-4 -0.525729,0 -0.112839,-6.32e-4 -0.147813,-0.03646 -0.147813,-0.149912 V 9.6837166 c 0,-0.1066533 0.04177,-0.1641203 0.133472,-0.1637496 z M 13.842962,8.6120008 c 0.110238,2.502e-4 0.145707,0.050053 0.109126,0.1548518 L 13.369385,10.43574 c -0.151143,0.433411 -0.301299,0.867316 -0.452319,1.300728 -0.03831,0.110114 -0.08317,0.142493 -0.200084,0.142988 -0.206015,9.7e-4 -0.412155,2.5e-4 -0.61817,2.5e-4 h -0.596914 c -0.131494,-2.5e-4 -0.171041,-0.02867 -0.216891,-0.149662 C 10.948856,10.842707 10.612088,9.955369 10.27569,9.0681547 10.236266,8.9640965 10.197338,8.859915 10.160016,8.7552388 c -0.03078,-0.086139 0.0059,-0.1424932 0.0959,-0.1428639 0.357654,-0.00125 0.715307,-4.911e-4 1.072838,-3.706e-4 0.08194,0 0.122348,0.048448 0.14583,0.1209889 0.127169,0.3939884 0.255326,0.7878522 0.383235,1.1815929 0.06439,0.1981069 0.128158,0.3963369 0.194894,0.5935769 0.0086,0.02595 0.03373,0.04622 0.05128,0.06921 0.01854,-0.02385 0.04597,-0.04486 0.0545,-0.0718 0.138416,-0.440208 0.274606,-0.8811583 0.410796,-1.3219845 0.04597,-0.1492907 0.08984,-0.2990748 0.135325,-0.4486123 0.02842,-0.092565 0.06834,-0.1228433 0.164985,-0.1230907 0.324534,-4.911e-4 0.648944,-4.911e-4 0.973477,1.205e-4 z m 3.32418,2.1833702 c -0.167086,0 -0.259528,0.102575 -0.258168,0.286469 0.0013,0.168817 0.100968,0.273493 0.259775,0.272504 l 0.02039,-6.28e-4 c 0.146448,-0.0096 0.234316,-0.112956 0.233204,-0.276953 -0.0011,-0.18204 -0.0912,-0.281402 -0.255202,-0.281402 z M 14.857839,10.19648 c -0.03189,-1.21e-4 -0.06377,3.7e-4 -0.09541,0.003 -0.01681,0.0012 -0.04449,0.02719 -0.04511,0.04251 -0.0039,0.106282 -0.0037,0.212565 -3.71e-4,0.318848 4.92e-4,0.01607 0.02373,0.04462 0.03658,0.04462 l 0.175738,2.5e-4 0.08775,-0.0011 c 0.05858,-0.0013 0.117035,-0.0039 0.17512,-0.0093 0.107889,-0.0098 0.167086,-0.09244 0.164615,-0.196128 -0.0023,-0.104429 -0.06315,-0.180804 -0.169806,-0.193781 -0.01533,-0.0018 -0.03065,-0.0031 -0.04622,-0.0037 l -0.04659,-9.71e-4 c -0.03115,0 -0.06241,0.0012 -0.09368,0.0021 l -0.04671,7.43e-4 v -0.0062 c -0.01607,0 -0.03201,-1.21e-4 -0.04795,-3.71e-4 z M 8.4190786,8.938759 c -0.019029,0.02373 -0.046711,0.04449 -0.055861,0.071308 -0.094913,0.2822674 -0.1871074,0.5655235 -0.2796723,0.848532 -0.031886,0.097632 -0.062658,0.195882 -0.096396,0.301053 H 8.851871 C 8.850386,10.144077 8.8511284,10.13691 8.8490153,10.13061 8.7227115,9.756643 8.5966556,9.3825527 8.4686219,9.0090795 8.4597239,8.9831279 8.435994,8.9621165 8.419186,8.9387601 Z"
     id="path2-7" />
</svg>
