<?xml version="1.0" encoding="UTF-8" standalone="no"?>
<svg
   xmlns:dc="http://purl.org/dc/elements/1.1/"
   xmlns:cc="http://creativecommons.org/ns#"
   xmlns:rdf="http://www.w3.org/1999/02/22-rdf-syntax-ns#"
   xmlns:svg="http://www.w3.org/2000/svg"
   xmlns="http://www.w3.org/2000/svg"
   xmlns:sodipodi="http://sodipodi.sourceforge.net/DTD/sodipodi-0.dtd"
   xmlns:inkscape="http://www.inkscape.org/namespaces/inkscape"
   viewBox="0 0 24 24"
   fill="black"
   width="18px"
   height="18px"
   version="1.1"
   id="svg6"
   sodipodi:docname="EO.svg"
   inkscape:version="0.92.4 (5da689c313, 2019-01-14)">
  <metadata
     id="metadata12">
    <rdf:RDF>
      <cc:Work
         rdf:about="">
        <dc:format>image/svg+xml</dc:format>
        <dc:type
           rdf:resource="http://purl.org/dc/dcmitype/StillImage" />
        <dc:title></dc:title>
      </cc:Work>
    </rdf:RDF>
  </metadata>
  <defs
     id="defs10">
    <linearGradient
       id="a9j7a"
       gradientUnits="userSpaceOnUse"
       x1="55.380001"
       x2="83.039993"
       y1="110.1"
       y2="110.1">
      <stop
         id="stop2"
         offset="0"
         stop-color="#69007d"
         stop-opacity=".6"
         style="stop-color:#000000;stop-opacity:0.60000002" />
      <stop
         id="stop4"
         offset="1"
         stop-color="#69007d"
         style="stop-color:#000000;stop-opacity:1" />
    </linearGradient>
    <linearGradient
       id="a9j7b"
       gradientUnits="userSpaceOnUse"
       x1="91.469994"
       x2="160.73"
       y1="162.96001"
       y2="78.449997">
      <stop
         id="stop7"
         offset="0"
         stop-color="#69007d"
         stop-opacity=".25"
         style="stop-color:#000000;stop-opacity:0.25098041" />
      <stop
         id="stop9"
         offset=".38"
         stop-color="#69007d"
         stop-opacity=".68"
         style="stop-color:#000000;stop-opacity:0.67843139" />
      <stop
         id="stop11"
         offset="1"
         stop-color="#69007d"
         style="stop-color:#0c000f;stop-opacity:1" />
    </linearGradient>
  </defs>
  <sodipodi:namedview
     pagecolor="#ffffff"
     bordercolor="#666666"
     borderopacity="1"
     objecttolerance="10"
     gridtolerance="10"
     guidetolerance="10"
     inkscape:pageopacity="0"
     inkscape:pageshadow="2"
     inkscape:window-width="1680"
     inkscape:window-height="987"
     id="namedview8"
     showgrid="false"
     inkscape:snap-bbox="true"
     inkscape:bbox-nodes="true"
     inkscape:snap-bbox-edge-midpoints="true"
     inkscape:bbox-paths="true"
     inkscape:zoom="20.690972"
     inkscape:cx="13.360188"
     inkscape:cy="17.791412"
     inkscape:window-x="-8"
     inkscape:window-y="-8"
     inkscape:window-maximized="1"
     inkscape:current-layer="svg6" />
  <path
     d="M0 0h24v24H0z"
     fill="none"
     id="path2" />
  <g
     transform="matrix(0.02688774,0,0,0.02688774,5.9462245,9.0311043)"
     id="g832">
    <path
       inkscape:connector-curvature="0"
       style="fill:#000000;fill-opacity:1"
       d="m 379.7,153.6 c -11.5,11.9 -25.1,17.7 -41.5,17.7 -16.4,0 -29.6,-5.8 -41.2,-17.7 -11.6,-11.9 -17.1,-26.4 -17.1,-43.3 0,-16.9 5.7,-31.5 17.1,-43.3 11.4,-11.8 25,-17.7 41.2,-17.7 16.2,0 30,5.8 41.5,17.7 11.5,11.9 17.2,26.4 17.2,43.3 0,16.9 -5.8,31.5 -17.2,43.3 z m 36.6,-120 C 395.2,12.6 368.9,2 338.2,2 c -30.7,0 -56.3,10.7 -77.6,31.7 -21.3,21 -32.1,46.8 -32.1,76.6 0,29.8 10.9,55.8 32.3,76.7 21.4,20.9 47.6,31.6 77.8,31.6 30.2,0 56.3,-10.7 77.6,-31.8 21.3,-21.1 32.1,-46.7 32.1,-76.2 0,-29.5 -10.8,-56.1 -32,-77 z"
       id="path16" />
    <path
       style="fill:url(#a9j7a)"
       inkscape:connector-curvature="0"
       d="m 105.602,85.3 h -42.2 a 3.5,3.5 0 0 1 -3.1,-4.9 64.2,64.2 0 0 0 -0.2,58.7 l 0.4,0.6 a 30.5,30.5 0 0 1 -2.6,-7.3 c -5.4,-26.7 21.6,-47.1 47.7,-47.1 z"
       id="path18" />
    <path
       style="fill:url(#a9j7b)"
       inkscape:connector-curvature="0"
       d="m 213.902,86.8 c -0.2,-2 -1,-5.5 -1.2,-6.5 h -49.6 a 4,4 0 0 1 0.3,1.5 3.3,3.3 0 0 1 -3.2,3.4 h -54.6 c -26,0 -53,20.3 -47.7,47.1 h 108.2 c 25.8,0.1 51.8,-19.5 47.8,-45.5 z"
       id="path20" />
    <path
       inkscape:connector-curvature="0"
       style="fill:#000000;fill-opacity:1"
       d="m 147,159 c -1.7,1.2 -3.3,2.3 -5,3.3 h -0.1 l -0.9,0.6 a 56.2,56.2 0 0 1 -29.4,8.3 c -32.3,0 -58.5,-27.4 -58.5,-61.3 0,-33.9 26.2,-61.2 58.5,-61.2 a 56.4,56.4 0 0 1 28.7,7.8 l 1.6,1 h 0.1 l 2.5,1.7 a 55.6,55.6 0 0 1 10.5,9.4 c 0.1,0 0.1,0 0.1,0.1 l 2.1,2.5 0.2,0.2 1.9,2.6 0.2,0.3 c 0.6,0.9 1.2,1.7 1.7,2.6 l 0.2,0.3 c 0.5,0.9 1.1,1.8 1.6,2.8 v 0.2 a 4,4 0 0 1 0.3,1.5 3.3,3.3 0 0 1 -3.2,3.4 h 53.5 c -0.1,-0.8 -0.3,-1.6 -0.4,-2.4 L 213,82.1 c -0.119,-0.81 -0.286,-1.61 -0.5,-2.4 0,-0.1 0,-0.1 -0.1,-0.2 l -0.6,-2.3 c 0,-0.2 -0.1,-0.4 -0.1,-0.6 0,-0.2 -0.5,-1.6 -0.8,-2.5 v -0.2 a 22.5,22.5 0 0 1 -0.8,-2.4 C 210,71.4 210,71.2 209.9,71.1 L 209,68.5 h -0.1 c -0.3,-0.9 -0.7,-1.7 -1,-2.6 -0.3,-0.9 -0.1,-0.1 -0.1,-0.2 L 206.6,63 h -0.1 l -1.2,-2.6 h -0.1 c -0.4,-0.9 -0.9,-1.8 -1.4,-2.7 -1,-1.8 -2,-3.6 -3.1,-5.4 A 106.3,106.3 0 0 0 193.3,41.7 C 175.8,19.5 148.4,2.3 113.8,2.3 81.1,2.3 54.6,13.7 34.1,34.2 11.8,56.5 2,82 2,110.2 c 0,57.5 45.3,119.9 130,106.9 23.6,-3.6 47,-18.4 61.4,-34.4 a 69.9,69.9 0 0 0 7,-8.9 5.8,5.8 0 0 0 -1,-7.6 C 183.5,151.9 164.4,146.3 147,159 Z"
       id="path22" />
  </g>
</svg>
