<?xml version="1.0" encoding="UTF-8" standalone="no"?>
<svg
   xmlns:dc="http://purl.org/dc/elements/1.1/"
   xmlns:cc="http://creativecommons.org/ns#"
   xmlns:rdf="http://www.w3.org/1999/02/22-rdf-syntax-ns#"
   xmlns:svg="http://www.w3.org/2000/svg"
   xmlns="http://www.w3.org/2000/svg"
   xmlns:sodipodi="http://sodipodi.sourceforge.net/DTD/sodipodi-0.dtd"
   xmlns:inkscape="http://www.inkscape.org/namespaces/inkscape"
   viewBox="0 0 24 24"
   fill="black"
   width="18px"
   height="18px"
   version="1.1"
   id="svg6"
   sodipodi:docname="KRONCRV.svg"
   inkscape:version="0.92.4 (5da689c313, 2019-01-14)">
  <metadata
     id="metadata12">
    <rdf:RDF>
      <cc:Work
         rdf:about="">
        <dc:format>image/svg+xml</dc:format>
        <dc:type
           rdf:resource="http://purl.org/dc/dcmitype/StillImage" />
        <dc:title></dc:title>
      </cc:Work>
    </rdf:RDF>
  </metadata>
  <defs
     id="defs10" />
  <sodipodi:namedview
     pagecolor="#ffffff"
     bordercolor="#666666"
     borderopacity="1"
     objecttolerance="10"
     gridtolerance="10"
     guidetolerance="10"
     inkscape:pageopacity="0"
     inkscape:pageshadow="2"
     inkscape:window-width="1680"
     inkscape:window-height="987"
     id="namedview8"
     showgrid="false"
     inkscape:snap-bbox="true"
     inkscape:bbox-nodes="true"
     inkscape:snap-bbox-edge-midpoints="true"
     inkscape:bbox-paths="true"
     inkscape:zoom="29.261454"
     inkscape:cx="15.739994"
     inkscape:cy="3.7625814"
     inkscape:window-x="-8"
     inkscape:window-y="-8"
     inkscape:window-maximized="1"
     inkscape:current-layer="svg6" />
  <path
     d="M0 0h24v24H0z"
     fill="none"
     id="path2" />
  <path
     inkscape:connector-curvature="0"
     d="m 15.348164,12.000001 c 0.32959,-0.573144 0.517549,-1.193932 0.517549,-1.908694 0,-2.1261567 -1.739569,-3.8657255 -3.865713,-3.8657255 -2.1261567,0 -3.8657255,1.7395688 -3.8657255,3.8657255 0,0.714762 0.1879634,1.335562 0.5175502,1.908705 -0.3295769,0.573145 -0.5175346,1.19392 -0.5175346,1.908682 0,2.126155 1.7395788,3.865725 3.8657229,3.865725 2.126144,0 3.865713,-1.73957 3.865713,-3.865725 0,-0.667118 -0.187959,-1.334248 -0.517562,-1.908693 z m -0.02819,1.2e-5 c -0.679784,-1.146288 -1.928402,-1.908706 -3.319975,-1.908706 -1.439193,0 -2.6878644,0.762014 -3.3204896,1.907809 0.6796685,1.146768 1.9285736,1.909578 3.3205016,1.909578 1.391562,0 2.640166,-0.762406 3.319963,-1.908681 z"
     id="path2-8"
     style="clip-rule:evenodd;fill:#000000;fill-opacity:1;fill-rule:evenodd;stroke-width:0.12641022" />
</svg>
