<?xml version="1.0" encoding="UTF-8" standalone="no"?>
<svg
   xmlns:dc="http://purl.org/dc/elements/1.1/"
   xmlns:cc="http://creativecommons.org/ns#"
   xmlns:rdf="http://www.w3.org/1999/02/22-rdf-syntax-ns#"
   xmlns:svg="http://www.w3.org/2000/svg"
   xmlns="http://www.w3.org/2000/svg"
   xmlns:sodipodi="http://sodipodi.sourceforge.net/DTD/sodipodi-0.dtd"
   xmlns:inkscape="http://www.inkscape.org/namespaces/inkscape"
   viewBox="0 0 24 24"
   fill="black"
   width="18px"
   height="18px"
   version="1.1"
   id="svg6"
   sodipodi:docname="MAX.svg"
   inkscape:version="0.92.4 (5da689c313, 2019-01-14)">
  <metadata
     id="metadata12">
    <rdf:RDF>
      <cc:Work
         rdf:about="">
        <dc:format>image/svg+xml</dc:format>
        <dc:type
           rdf:resource="http://purl.org/dc/dcmitype/StillImage" />
        <dc:title />
      </cc:Work>
    </rdf:RDF>
  </metadata>
  <defs
     id="defs10">
    <linearGradient
       id="a9j7a"
       gradientUnits="userSpaceOnUse"
       x1="55.380001"
       x2="83.039993"
       y1="110.1"
       y2="110.1">
      <stop
         id="stop2"
         offset="0"
         stop-color="#69007d"
         stop-opacity=".6"
         style="stop-color:#000000;stop-opacity:0.60000002" />
      <stop
         id="stop4"
         offset="1"
         stop-color="#69007d"
         style="stop-color:#000000;stop-opacity:1" />
    </linearGradient>
    <linearGradient
       id="a9j7b"
       gradientUnits="userSpaceOnUse"
       x1="91.469994"
       x2="160.73"
       y1="162.96001"
       y2="78.449997">
      <stop
         id="stop7"
         offset="0"
         stop-color="#69007d"
         stop-opacity=".25"
         style="stop-color:#000000;stop-opacity:0.25098041" />
      <stop
         id="stop9"
         offset=".38"
         stop-color="#69007d"
         stop-opacity=".68"
         style="stop-color:#000000;stop-opacity:0.67843139" />
      <stop
         id="stop11"
         offset="1"
         stop-color="#69007d"
         style="stop-color:#0c000f;stop-opacity:1" />
    </linearGradient>
  </defs>
  <sodipodi:namedview
     pagecolor="#ffffff"
     bordercolor="#666666"
     borderopacity="1"
     objecttolerance="10"
     gridtolerance="10"
     guidetolerance="10"
     inkscape:pageopacity="0"
     inkscape:pageshadow="2"
     inkscape:window-width="1680"
     inkscape:window-height="987"
     id="namedview8"
     showgrid="false"
     inkscape:snap-bbox="true"
     inkscape:bbox-nodes="true"
     inkscape:snap-bbox-edge-midpoints="true"
     inkscape:bbox-paths="true"
     inkscape:zoom="64"
     inkscape:cx="7.3219838"
     inkscape:cy="10.377127"
     inkscape:window-x="-8"
     inkscape:window-y="-8"
     inkscape:window-maximized="1"
     inkscape:current-layer="g821" />
  <path
     d="M0 0h24v24H0z"
     fill="none"
     id="path2" />
  <g
     transform="matrix(0.252696,0,0,0.252696,-76.443831,-122.52354)"
     id="g821">
    <path
       inkscape:connector-curvature="0"
       style="fill:#0c0c0c;fill-opacity:1;fill-rule:nonzero;stroke:none"
       id="path1654"
       d="m 356.84375,517.0625 c -0.55707,6e-4 -1.1475,0.034 -1.71875,0.0625 l 1.625,6.6875 h 5.34375 c 0.35375,0.6 2.16625,3.7525 2.3125,4 0.14625,-0.2475 1.92875,-3.4 2.28125,-4 h 5.40625 c -0.605,0.8825 -5.05375,7.4575 -5.125,7.5625 0.04,0.06 1.75625,2.49625 3.34375,4.78125 2.85,-3.43125 4.08625,-7.20625 3.09375,-10.625 -1.56094,-5.37188 -8.20652,-8.47777 -16.5625,-8.46875 z m -7.25,0.75 c -1.17875,0.23375 -2.365,0.52625 -3.5625,0.875 -4.23375,1.235 -8.0325,3.03875 -11.125,5.1875 l 3.28125,8.65625 3.46875,-8.71875 h 4.1875 l 0.84375,5.71875 z m 7.21875,6.15625 2.5625,10.6875 c 1.2825,-1.7475 2.40375,-3.23375 2.4375,-3.28125 -0.0713,-0.10375 -4.1225,-6.12 -5,-7.40625 z m -4.40625,1.5625 -2.0625,9.5 H 354.5 l -2.0625,-9.5 h -0.0312 z m -22.375,2.65625 c -3.0825,3.535 -4.4675,7.4525 -3.4375,11 2.195,7.555 14.455,10.61125 27.375,6.84375 0.9825,-0.28625 1.94375,-0.5925 2.875,-0.9375 l -1.15625,-4.875 h -6.5625 l -1.25,4.9375 h -5.0625 l 1.25,-5.03125 -1.15625,-9.375 h -0.0625 l -3.875,9.375 h -1.65625 l -3.71875,-9.375 h -0.0312 l -1.375,9.375 h -4.15625 l 2,-11.9375 z m 34.375,6.71875 c -0.165,0.23375 -3.6875,5.21875 -3.6875,5.21875 l 0.71875,2.9375 c 2.16,-1.13375 4.085,-2.42125 5.75,-3.8125 -0.93,-1.43625 -2.66875,-4.1675 -2.78125,-4.34375 z" />
  </g>
</svg>
