<?xml version="1.0" encoding="UTF-8" standalone="no"?>
<svg
   xmlns:dc="http://purl.org/dc/elements/1.1/"
   xmlns:cc="http://creativecommons.org/ns#"
   xmlns:rdf="http://www.w3.org/1999/02/22-rdf-syntax-ns#"
   xmlns:svg="http://www.w3.org/2000/svg"
   xmlns="http://www.w3.org/2000/svg"
   xmlns:sodipodi="http://sodipodi.sourceforge.net/DTD/sodipodi-0.dtd"
   xmlns:inkscape="http://www.inkscape.org/namespaces/inkscape"
   viewBox="0 0 24 24"
   fill="black"
   width="18px"
   height="18px"
   version="1.1"
   id="svg6"
   sodipodi:docname="NTR.svg"
   inkscape:version="0.92.4 (5da689c313, 2019-01-14)">
  <metadata
     id="metadata12">
    <rdf:RDF>
      <cc:Work
         rdf:about="">
        <dc:format>image/svg+xml</dc:format>
        <dc:type
           rdf:resource="http://purl.org/dc/dcmitype/StillImage" />
        <dc:title></dc:title>
      </cc:Work>
    </rdf:RDF>
  </metadata>
  <defs
     id="defs10" />
  <sodipodi:namedview
     pagecolor="#ffffff"
     bordercolor="#666666"
     borderopacity="1"
     objecttolerance="10"
     gridtolerance="10"
     guidetolerance="10"
     inkscape:pageopacity="0"
     inkscape:pageshadow="2"
     inkscape:window-width="1680"
     inkscape:window-height="987"
     id="namedview8"
     showgrid="false"
     inkscape:snap-bbox="true"
     inkscape:bbox-nodes="true"
     inkscape:snap-bbox-edge-midpoints="true"
     inkscape:bbox-paths="true"
     inkscape:zoom="29.261454"
     inkscape:cx="16.715835"
     inkscape:cy="4.0520119"
     inkscape:window-x="-8"
     inkscape:window-y="-8"
     inkscape:window-maximized="1"
     inkscape:current-layer="svg6" />
  <path
     d="M0 0h24v24H0z"
     fill="none"
     id="path2" />
  <g
     transform="matrix(0.01333333,0,0,0.01333333,1.1133957,7.3430188)"
     id="layer1">
    <path
       inkscape:connector-curvature="0"
       d="m 1030.0486,271.29785 c -34.04972,0.0127 -64.03495,17.26997 -81.73193,43.52286 1.96106,-10.64349 -2.78344,-21.82469 -12.68363,-27.54972 l -22.8843,-13.20552 c -12.57292,-7.24327 -28.65677,-2.94159 -35.91585,9.63133 -7.24327,12.57292 -2.94159,28.65677 9.63133,35.91586 l 22.8843,13.1897 c 4.14353,2.38807 8.6508,3.52675 13.11063,3.52675 6.49996,0 12.85759,-2.4197 17.72861,-6.86371 -5.53525,12.30407 -8.63499,25.93659 -8.63499,40.31242 v 119.83023 h 52.56905 V 369.11359 c 0.0506,-25.33562 20.57528,-46.54353 45.92678,-46.59097 25.3514,0.0506 45.8792,21.25535 45.9267,46.59097 v 8.49266 h 52.569 v -7.82843 c -0.013,-54.38777 -44.0922,-98.46416 -98.4957,-98.47997 m 192.4684,132.05521 c -24.2918,0.0126 -43.9498,19.67385 -43.9815,43.9815 h 0.013 c 0,24.29184 19.6738,43.98151 43.9657,43.98151 24.2918,0 43.9657,-19.67386 43.9815,-43.98151 -0.013,-24.30765 -19.6897,-43.96569 -43.9815,-43.9815 m -402.72887,-5.70921 c -0.0506,25.35143 -20.57531,48.55203 -45.94256,48.59948 -25.35144,-0.0506 -45.8793,-23.24805 -45.92675,-48.59948 V 312.3852 c 3.163,10.9598 13.25297,19.00963 25.24074,19.00963 h 42.79537 c 14.51817,0 26.28453,-11.78217 26.28453,-26.28452 0,-14.51817 -11.76636,-26.28453 -26.28453,-26.28453 h -42.79537 c -11.98777,0 -22.07774,8.03402 -25.24074,19.00963 v -94.09923 l -52.56904,26.94876 v 165.63045 c 0.0127,54.40358 44.09221,98.47998 98.49579,98.49579 54.4194,-0.0127 98.49579,-44.09221 98.51161,-98.49579 v -11.65566 h -52.56905 z m 402.72887,-39.34771 c 24.2918,-0.0127 43.9657,-19.68967 43.9815,-43.99732 -0.013,-24.30765 -19.6897,-43.96569 -43.9815,-43.9815 -24.2919,0.0127 -43.9499,19.68967 -43.9815,43.9815 h 0.013 c 0,24.29183 19.6739,43.9815 43.9657,43.99732 M 523.21907,271.29785 c -34.03387,0.0127 -64.03492,17.26997 -81.7319,43.52286 1.97688,-10.64349 -2.78344,-21.82469 -12.68362,-27.54972 l -22.8843,-13.20552 c -12.57292,-7.24327 -28.64096,-2.94159 -35.90004,9.63133 -7.25909,12.57292 -2.94159,28.65677 9.63133,35.91586 l 22.8843,13.1897 c 4.12771,2.38807 8.6508,3.52675 13.11063,3.52675 6.48415,0 12.84178,-2.4197 17.72861,-6.86371 -5.53525,12.30407 -8.63499,25.93659 -8.6508,40.31242 v 119.83023 h 52.56904 v -119.83023 -0.66423 c 0.0506,-25.33562 20.57531,-46.54353 45.92675,-46.59097 25.35144,0.0506 45.8793,21.25535 45.92675,46.59097 v 120.49446 h 52.56904 V 369.77782 c -0.0127,-54.38777 -44.0922,-98.46416 -98.49579,-98.47997"
       id="path2758"
       style="fill:#000000;fill-opacity:1;fill-rule:nonzero;stroke:none" />
  </g>
</svg>
