<?xml version="1.0" encoding="UTF-8" standalone="no"?>
<!-- Created with Inkscape (http://www.inkscape.org/) -->

<svg
   xmlns:dc="http://purl.org/dc/elements/1.1/"
   xmlns:cc="http://creativecommons.org/ns#"
   xmlns:rdf="http://www.w3.org/1999/02/22-rdf-syntax-ns#"
   xmlns:svg="http://www.w3.org/2000/svg"
   xmlns="http://www.w3.org/2000/svg"
   xmlns:sodipodi="http://sodipodi.sourceforge.net/DTD/sodipodi-0.dtd"
   xmlns:inkscape="http://www.inkscape.org/namespaces/inkscape"
   width="275"
   height="274.98837"
   id="svg2"
   version="1.1"
   inkscape:version="0.92.4 (5da689c313, 2019-01-14)"
   sodipodi:docname="Github_logo_2020.svg">
  <defs
     id="defs4">
    <clipPath
       id="clipPath2999"
       clipPathUnits="userSpaceOnUse">
      <path
         id="path3001"
         d="m 0,124.725 144.861,0 L 144.861,0 0,0 0,124.725 z"
         inkscape:connector-curvature="0" />
    </clipPath>
    <clipPath
       clipPathUnits="userSpaceOnUse"
       id="clipPath896">
      <path
         id="path898"
         style="fill:#008080;fill-opacity:1;fill-rule:nonzero;stroke:none;stroke-width:1"
         d="M 32.273999,35.368001 -1.2169998,68.856 c -3.3710026,3.373001 -7.2389987,3.373001 -10.6079992,0 L -45.313001,35.37 c -3.373,-3.372003 -3.373,-7.237003 0,-10.609 l 33.489003,-33.4850015 c 3.3729956,-3.3750005 7.2369967,-3.3750005 10.6069982,0 L 32.270999,24.761 c 3.374002,3.369 3.374002,7.235996 0.0031,10.607001"
         inkscape:connector-curvature="0"
         sodipodi:nodetypes="ccccccccc" />
    </clipPath>
    <clipPath
       clipPathUnits="userSpaceOnUse"
       id="clipPath925">
      <path
         id="path927"
         style="fill:#24292e;fill-opacity:1;fill-rule:nonzero;stroke:none;stroke-width:1"
         d="M 32.273999,-35.368001 -1.2169998,-68.856 c -3.3709994,-3.373001 -7.2390018,-3.373001 -10.6079992,0 l -33.488002,33.486 c -3.373,3.372003 -3.373,7.237003 0,10.609 l 33.489003,33.4850021 c 3.3729956,3.3749999 7.2369999,3.3749999 10.6069982,0 L 32.270999,-24.761 c 3.374002,-3.369 3.374002,-7.235996 0.0031,-10.607001"
         inkscape:connector-curvature="0"
         sodipodi:nodetypes="ccccccccc" />
    </clipPath>
  </defs>
  <sodipodi:namedview
     id="base"
     pagecolor="#ffffff"
     bordercolor="#666666"
     borderopacity="1.0"
     inkscape:pageopacity="0.0"
     inkscape:pageshadow="2"
     inkscape:zoom="2.2558594"
     inkscape:cx="107.17721"
     inkscape:cy="110.33434"
     inkscape:document-units="px"
     inkscape:current-layer="g3003"
     showgrid="false"
     fit-margin-top="5"
     fit-margin-right="5"
     fit-margin-bottom="5"
     fit-margin-left="5"
     inkscape:window-width="1680"
     inkscape:window-height="987"
     inkscape:window-x="-8"
     inkscape:window-y="-8"
     inkscape:window-maximized="1" />
  <metadata
     id="metadata7">
    <rdf:RDF>
      <cc:Work
         rdf:about="">
        <dc:format>image/svg+xml</dc:format>
        <dc:type
           rdf:resource="http://purl.org/dc/dcmitype/StillImage" />
        <dc:title></dc:title>
      </cc:Work>
    </rdf:RDF>
  </metadata>
  <g
     inkscape:label="Ebene 1"
     inkscape:groupmode="layer"
     id="layer1"
     transform="translate(-293.34711,-314.02444)">
    <g
       transform="matrix(3.2065001,0,0,-3.2065001,198.36635,651.48383)"
       inkscape:label="NPO_Logo_Icon_CMYK"
       id="g2993">
      <g
         id="g2995">
        <g
           clip-path="url(#clipPath2999)"
           id="g2997">
          <g
             transform="translate(79.0234,92.4277)"
             id="g3003">
            <path
               id="path3005"
               style="fill:#24292e;fill-opacity:1;fill-rule:nonzero;stroke:none"
               d="M 32.274,-35.368 -1.217,-68.856 c -3.371,-3.373 -7.239,-3.373 -10.608,0 l -33.488,33.486 c -3.373,3.372 -3.373,7.237 0,10.609 l 33.489,33.485 c 3.373,3.375 7.237,3.375 10.607,0 l 33.488,-33.485 c 3.374,-3.369 3.374,-7.236 0.003,-10.607"
               inkscape:connector-curvature="0"
               sodipodi:nodetypes="ccccccccc" />
            <path
               d="m -15.149997,-72.376692 c 0,0.794028 -0.04155,12.689439 -0.04155,15.489442 -8.400008,-1.546269 -10.573144,2.047768 -11.241799,3.928362 -0.376147,0.961197 -2.005974,3.928362 -3.426876,4.722397 -1.17015,0.626866 -2.841791,2.173135 -0.04155,2.214924 2.63284,0.04155 4.51344,-2.423881 5.140306,-3.426868 3.008963,-5.056723 7.814939,-3.635827 9.737327,-2.758214 0.292529,2.173142 1.170149,3.635827 2.131346,4.47165 -7.438814,0.835818 -15.211964,3.719405 -15.211964,16.507477 0,3.635827 1.29553,6.644786 3.426869,8.985083 -0.334337,0.835825 -1.504473,4.262693 0.334338,8.859711 0,0 2.800005,0.877614 9.194045,-3.426868 2.674628,0.75224 5.5164183,1.12836 8.3582148,1.12836 2.8417918,0 5.6835883,-0.376148 8.3582176,-1.12836 6.3940317,4.346278 9.1940346,3.426868 9.1940346,3.426868 1.838811,-4.597018 0.668676,-8.023886 0.334339,-8.859711 2.131347,-2.340297 3.426868,-5.307467 3.426868,-8.985083 0,-12.829862 -7.8149352,-15.671659 -15.25374287,-16.507477 1.2119364,-1.04478 2.25671187,-3.050748 2.25671187,-6.185081 0,-4.471643 -0.041543,-17.190005 -0.041543,-18.318364 z"
               id="path2"
               inkscape:connector-curvature="0"
               style="fill-rule:evenodd;stroke-width:4.17910862;fill:#ffffff;fill-opacity:1"
               sodipodi:nodetypes="ccccccccscccscccscscc"
               clip-path="url(#clipPath925)" />
          </g>
        </g>
      </g>
    </g>
  </g>
</svg>
