<?xml version="1.0" encoding="UTF-8" standalone="no"?>
<!-- Created with Inkscape (http://www.inkscape.org/) -->

<svg
   xmlns:dc="http://purl.org/dc/elements/1.1/"
   xmlns:cc="http://creativecommons.org/ns#"
   xmlns:rdf="http://www.w3.org/1999/02/22-rdf-syntax-ns#"
   xmlns:svg="http://www.w3.org/2000/svg"
   xmlns="http://www.w3.org/2000/svg"
   xmlns:xlink="http://www.w3.org/1999/xlink"
   xmlns:sodipodi="http://sodipodi.sourceforge.net/DTD/sodipodi-0.dtd"
   xmlns:inkscape="http://www.inkscape.org/namespaces/inkscape"
   width="475"
   height="321.52536"
   id="svg2"
   version="1.1"
   inkscape:version="0.92.4 (5da689c313, 2019-01-14)"
   sodipodi:docname="NPO_Radio_5_sterrennl_logo_2016.svg">
  <defs
     id="defs4">
    <linearGradient
       inkscape:collect="always"
       id="linearGradient871">
      <stop
         style="stop-color:#bc8bba;stop-opacity:1"
         offset="0"
         id="stop867" />
      <stop
         id="stop879"
         offset="0.25102353"
         style="stop-color:#525ca4;stop-opacity:1" />
      <stop
         id="stop875"
         offset="0.50204706"
         style="stop-color:#60bbe7;stop-opacity:1" />
      <stop
         style="stop-color:#99c033;stop-opacity:1"
         offset="0.75102353"
         id="stop877" />
      <stop
         style="stop-color:#e7221c;stop-opacity:1"
         offset="1"
         id="stop869" />
    </linearGradient>
    <clipPath
       id="clipPath2999"
       clipPathUnits="userSpaceOnUse">
      <path
         id="path3001"
         d="m 0,124.725 187.087,0 L 187.087,0 0,0 0,124.725 z"
         inkscape:connector-curvature="0" />
    </clipPath>
    <linearGradient
       inkscape:collect="always"
       xlink:href="#linearGradient871"
       id="linearGradient873"
       x1="1124.1786"
       y1="714.95581"
       x2="1335.4062"
       y2="804.05713"
       gradientUnits="userSpaceOnUse"
       gradientTransform="translate(-3.6943791e-8,-0.4432904)" />
  </defs>
  <sodipodi:namedview
     id="base"
     pagecolor="#ffffff"
     bordercolor="#666666"
     borderopacity="1.0"
     inkscape:pageopacity="0.0"
     inkscape:pageshadow="2"
     inkscape:zoom="3.1902669"
     inkscape:cx="331.76423"
     inkscape:cy="173.01867"
     inkscape:document-units="px"
     inkscape:current-layer="layer1"
     showgrid="false"
     fit-margin-top="5"
     fit-margin-right="5"
     fit-margin-left="5"
     fit-margin-bottom="5"
     inkscape:window-width="1680"
     inkscape:window-height="987"
     inkscape:window-x="-8"
     inkscape:window-y="-8"
     inkscape:window-maximized="1"
     inkscape:snap-global="true" />
  <metadata
     id="metadata7">
    <rdf:RDF>
      <cc:Work
         rdf:about="">
        <dc:format>image/svg+xml</dc:format>
        <dc:type
           rdf:resource="http://purl.org/dc/dcmitype/StillImage" />
        <dc:title></dc:title>
      </cc:Work>
    </rdf:RDF>
  </metadata>
  <g
     inkscape:label="Ebene 1"
     inkscape:groupmode="layer"
     id="layer1"
     transform="translate(-900.76033,-627.48761)">
    <path
       style="opacity:0.98999999;fill:url(#linearGradient873);fill-opacity:1;fill-rule:nonzero;stroke:none;stroke-width:35.67724609;stroke-linecap:round;stroke-linejoin:round;stroke-miterlimit:4;stroke-dasharray:142.70899109, 142.70899109;stroke-dashoffset:0;stroke-opacity:1;paint-order:stroke fill markers"
       d="m 1123.7351,705.20343 173.3265,-0.11082 15.7367,22.71861 23.0511,16.84504 v 86.88483 h -212.1143 z"
       id="rect865"
       inkscape:connector-curvature="0"
       sodipodi:nodetypes="ccccccc" />
    <g
       id="g3003"
       transform="matrix(3.7696111,0,0,-3.7696111,1086.1051,674.91572)">
      <path
         sodipodi:nodetypes="sccccccccccccccccsccccccsccccccccssccccccccsscccccccccccssccccccccscccccccccccccccccccccccccccc"
         inkscape:connector-curvature="0"
         id="path3005"
         transform="matrix(0.26527935,0,0,-0.26527935,-49.168147,12.581697)"
         d="m 160.76953,5 c -6.81875,0 -13.63864,3.18175 -19.99609,9.542969 L 14.537109,140.76758 c -12.7148979,12.71113 -12.7148979,27.28106 0,39.99219 L 140.76953,306.98828 c 12.69982,12.7149 27.28092,12.7149 39.98828,0 L 307.00586,180.75195 c 12.70736,-12.70736 12.70695,-27.28455 -0.0117,-39.98437 L 293.0469,126.82227 c -0.19417,0.0271 -0.3899,0.0414 -0.58594,0.043 -2.4788,-2e-5 -4.48826,-2.00948 -4.48828,-4.48828 0.002,-0.19604 0.0159,-0.39177 0.043,-0.58593 l -4.70507,-4.70313 c -1.96152,4.42495 -6.34533,7.27937 -11.18555,7.2832 -6.76261,1.1e-4 -12.24512,-5.48153 -12.24609,-12.24414 0.006,-4.84018 2.86311,-9.22246 7.28906,-11.18164 L 180.75781,14.542969 C 174.40602,8.18175 167.58829,5 160.76953,5 Z m 106.39844,95.94531 16.14258,16.14258 z m 20.84765,20.84571 5.03126,5.03125 c 0,0 -5.0312,-5.03121 -5.03126,-5.03125 z M 160.4082,30.792969 c 5.37735,-0.102722 10.60758,2.318922 15.35352,7.076172 l 9.58398,9.558593 c 9.50319,9.514499 9.67164,20.937333 -1.0039,31.601563 l -7.58789,7.607422 c -10.66046,10.66423 -22.09043,10.50196 -31.58985,0.964843 l -9.58203,-9.55664 c -9.49188,-9.510729 -9.66981,-20.925614 1.00195,-31.589844 l 7.59375,-7.599609 c 5.33023,-5.334 10.85312,-7.959778 16.23047,-8.0625 z m -0.0566,14.402343 c -1.91355,0.08764 -3.88432,1.191234 -6.02734,3.341797 l -8.0625,8.0625 c -4.28228,4.278509 -4.40778,7.88242 -0.57031,11.697266 l 9.21093,9.224609 c 3.82993,3.837464 7.41372,3.719095 11.71485,-0.582031 l 8.06054,-8.0625 c 4.27474,-4.274739 4.39856,-7.890095 0.57618,-11.701172 l -9.21289,-9.226562 c -1.91874,-1.913078 -3.77591,-2.84155 -5.68946,-2.753907 z m -47.95703,33.607422 c 5.37452,-0.101308 10.60381,2.320808 15.35352,7.076172 l 9.59375,9.550782 c 9.49565,9.525802 9.68112,20.937192 -1.00196,31.597652 l -8.10937,8.12305 c -2.78574,2.7782 -5.15172,4.24523 -7.07422,4.65234 l 7.07227,7.05274 c 3.53966,3.55474 3.0788,7.47783 0.3496,10.20703 -2.72542,2.72543 -6.72051,3.24306 -10.27148,-0.28906 L 87.572266,126.05469 c -9.50319,-9.52204 -9.668,-20.92925 1,-31.58594 l 7.597656,-7.603516 c 5.330228,-5.337769 10.850088,-7.961191 16.224608,-8.0625 z m -0.0547,14.400391 c -1.91496,0.08576 -3.88863,1.187259 -6.04296,3.335937 l -8.052739,8.062498 c -4.286048,4.28228 -4.394515,7.88633 -0.56836,11.70117 l 9.218749,9.22461 c 3.8337,3.8337 7.40409,3.71547 11.70899,-0.57812 l 8.05664,-8.0625 c 4.28981,-4.27474 4.41027,-7.88256 0.58789,-11.70117 l -9.22071,-9.226566 c -1.91684,-1.911192 -3.77253,-2.841618 -5.6875,-2.755859 z m 119.05664,20.085935 c 4.40778,-6.9e-4 7.98116,3.57269 7.98047,7.98047 -3.9e-4,4.40702 -3.57345,7.97921 -7.98047,7.97852 -4.40625,-3.9e-4 -7.97812,-3.57227 -7.97851,-7.97852 -6.9e-4,-4.40701 3.5715,-7.98008 7.97851,-7.98047 z m 22.83008,6.53906 c 3.73323,2.2e-4 6.75955,3.02654 6.75977,6.75977 8.5e-4,3.73399 -3.02578,6.7615 -6.75977,6.76172 -3.73398,-2.3e-4 -6.76061,-3.02774 -6.75976,-6.76172 2.2e-4,-3.73322 3.02654,-6.75954 6.75976,-6.75977 z m -190.699216,7.84571 c 5.374994,-0.10037 10.60401,2.32276 15.359375,7.07812 l 20.355469,20.34375 c 3.543432,3.54721 3.020072,7.53266 0.287109,10.26563 -2.725429,2.72166 -6.674906,3.19537 -10.207031,-0.35938 L 69.150391,144.83789 c -3.818616,-3.83746 -7.426707,-3.71142 -11.708985,0.58594 l -8.058594,8.05469 c -4.297356,4.28981 -4.414182,7.89009 -0.591796,11.70117 l 20.167968,20.18945 c 3.554744,3.52459 3.083124,7.4802 0.365235,10.2207 -2.732968,2.71035 -6.714925,3.2407 -10.273438,-0.30273 L 38.710938,174.91992 c -9.514499,-9.51073 -9.683625,-20.93161 0.984374,-31.59961 l 7.59961,-7.58984 c 5.337769,-5.334 10.857428,-7.95628 16.232422,-8.05664 z"
         style="fill:#e6e6e6;fill-opacity:1;fill-rule:nonzero;stroke:none;stroke-width:3.76961112" />
    </g>
    <g
       id="g3007"
       transform="matrix(3.7696111,0,0,-3.7696111,1028.0075,732.67445)">
      <path
         inkscape:connector-curvature="0"
         d="M 0,0 -2.446,2.448 C -3.463,3.462 -4.415,3.435 -5.558,2.294 L -7.694,0.155 C -8.831,-0.98 -8.86,-1.937 -7.845,-2.948 l 2.446,-2.448 c 1.017,-1.017 1.964,-0.986 3.106,0.153 l 2.137,2.139 C 0.982,-1.97 1.014,-1.013 0,0 M 2.678,2.588 C 5.197,0.062 5.246,-2.966 2.412,-5.794 L 0.261,-7.949 c -0.739,-0.737 -1.367,-1.126 -1.877,-1.234 l 1.876,-1.871 c 0.939,-0.943 0.817,-1.984 0.094,-2.708 -0.724,-0.722 -1.784,-0.86 -2.726,0.077 l -8.153,8.149 c -2.521,2.526 -2.565,5.553 0.265,8.38 l 2.016,2.016 c 2.828,2.832 5.857,2.786 8.377,0.262 z m 10.057,10.148 -2.444,2.449 C 9.273,16.199 8.32,16.169 7.183,15.028 L 5.044,12.89 C 3.908,11.754 3.875,10.798 4.894,9.786 L 7.336,7.339 C 8.353,6.321 9.303,6.353 10.444,7.493 l 2.138,2.139 c 1.134,1.135 1.167,2.094 0.153,3.104 m 2.677,2.586 C 17.933,12.798 17.979,9.769 15.146,6.939 L 13.133,4.921 C 10.305,2.092 7.273,2.136 4.753,4.665 L 2.211,7.2 c -2.518,2.524 -2.565,5.551 0.267,8.38 l 2.013,2.017 c 2.828,2.83 5.862,2.785 8.379,0.261 z M -7.429,-13.239 c 0.94,-0.942 0.802,-1.998 0.076,-2.724 -0.723,-0.722 -1.771,-0.848 -2.708,0.095 l -5.351,5.349 c -1.013,1.018 -1.97,0.985 -3.106,-0.155 l -2.138,-2.137 c -1.14,-1.137 -1.171,-2.092 -0.157,-3.104 l 5.35,-5.356 c 0.943,-0.935 0.818,-1.984 0.097,-2.71 -0.725,-0.72 -1.78,-0.861 -2.725,0.08 l -5.396,5.402 c -2.524,2.523 -2.569,5.554 0.261,8.384 l 2.017,2.012 c 2.832,2.831 5.857,2.784 8.38,0.26 z"
         style="fill:#263c88;fill-opacity:1;fill-rule:nonzero;stroke:none"
         id="path3009" />
    </g>
    <path
       style="fill:#263c88;fill-opacity:1;fill-rule:nonzero;stroke:none;stroke-width:3.76961112"
       d="m 1215.0006,632.48762 c -6.8202,0 -13.6385,3.17973 -19.9902,9.53906 l -126.2442,126.2246 c -12.7073,12.70737 -12.7073,27.27702 0,39.98439 l 126.2324,126.24022 c 12.7149,12.7149 27.2853,12.7149 40.0039,0 L 1361.235,808.23567 c 12.7073,-12.70737 12.6922,-27.28457 0,-39.98439 l -126.2325,-126.2246 c -6.3593,-6.35933 -13.1817,-9.53906 -20.0019,-9.53906 z m -10.5859,91.27929 c 5.2325,4e-4 9.4742,4.2421 9.4746,9.47462 -4e-4,5.23251 -4.2421,9.4742 -9.4746,9.4746 -5.2333,7e-4 -9.4762,-4.24131 -9.4766,-9.4746 4e-4,-5.2333 4.2433,-9.47532 9.4766,-9.47462 z m -31.5293,3.60157 c 6.7633,-6e-5 12.2461,5.48275 12.246,12.24609 -10e-4,6.76257 -5.4834,12.24419 -12.246,12.24413 -6.7626,1.2e-4 -12.2451,-5.48152 -12.2461,-12.24413 -10e-5,-6.76338 5.4827,-12.24621 12.2461,-12.24609 z m 92.2597,1.10741 c 9.0273,3.4e-4 16.3454,7.31836 16.3457,16.3457 7e-4,9.0281 -7.3176,16.34732 -16.3457,16.34766 -9.0281,-3.4e-4 -16.3464,-7.31956 -16.3457,-16.34766 3e-4,-9.02734 7.3184,-16.34536 16.3457,-16.3457 z m -132.9883,12.30079 c 4.4078,-7.1e-4 7.9812,3.57268 7.9805,7.98047 -4e-4,4.40702 -3.5735,7.97922 -7.9805,7.97851 -4.4062,-4e-4 -7.9781,-3.57227 -7.9785,-7.97851 -7e-4,-4.40701 3.5715,-7.98007 7.9785,-7.98047 z m 103.5098,1.16406 c 4.4371,7.9e-4 8.0335,3.59811 8.0332,8.03516 3e-4,4.43705 -3.5961,8.03437 -8.0332,8.03516 -4.4378,3.1e-4 -8.0355,-3.59733 -8.0352,-8.03516 -3e-4,-4.43783 3.5974,-8.03547 8.0352,-8.03516 z m -42.4453,3.43554 c 2.4788,1e-5 4.4883,2.00947 4.4883,4.48828 0,2.47881 -2.0095,4.48827 -4.4883,4.48828 -2.4788,-10e-6 -4.4883,-2.00947 -4.4883,-4.48828 0,-2.47881 2.0095,-4.48827 4.4883,-4.48828 z m -38.2344,1.93945 c 3.7332,2.1e-4 6.7596,3.02654 6.7598,6.75978 8e-4,3.73399 -3.0258,6.7615 -6.7598,6.76171 -3.734,-2.6e-4 -6.7605,-3.02775 -6.7597,-6.76171 2e-4,-3.7332 3.0265,-6.75952 6.7597,-6.75978 z m 60.5098,1.60743 c 3.2743,7.2e-4 5.9281,2.65543 5.9277,5.92969 -7e-4,3.2735 -2.6542,5.92702 -5.9277,5.92774 -3.2743,3.8e-4 -5.929,-2.65346 -5.9297,-5.92774 -4e-4,-3.27504 2.6547,-5.93007 5.9297,-5.92969 z m 86.5527,5.09765 c 18.6061,3e-4 33.6892,15.08341 33.6895,33.68947 7e-4,18.60681 -15.0827,33.69109 -33.6895,33.69139 -18.6076,7.5e-4 -33.6921,-15.08384 -33.6914,-33.69139 3e-4,-18.6068 15.0846,-33.69022 33.6914,-33.68947 z"
       id="path3013"
       inkscape:connector-curvature="0"
       sodipodi:nodetypes="sccccccccsccccccccccccccccccccccccccccccccccccccccccccc" />
    <path
       style="fill:#ffffff;stroke-width:0.53373361;fill-opacity:1"
       d="m 1100.1099,802.0504 c -2.2387,-0.58176 -4.1711,-1.88695 -5.2459,-3.54348 -0.6703,-1.033 -0.7835,-1.9962 -0.5013,-4.27462 0.3668,-2.96571 0.9663,-4.02181 1.6493,-2.90603 0.6729,1.09945 4.6958,2.5479 7.9355,2.85716 4.0884,0.39027 6.6963,-0.49648 7.3976,-2.51538 0.7334,-2.1116 -0.3007,-2.92697 -5.3189,-4.19315 -5.728,-1.44528 -7.7218,-2.56583 -8.9268,-5.01727 -0.871,-1.77198 -0.9257,-2.39352 -0.4088,-4.65473 1.6218,-7.09359 8.3543,-11.79517 16.8906,-11.79517 7.18,0 10.6392,2.58295 10.1628,7.58856 -0.1404,1.47656 -0.4124,2.84293 -0.6038,3.0364 -0.1916,0.19346 -1.3498,-0.21658 -2.574,-0.91119 -2.974,-1.68776 -9.5209,-2.15362 -12.0089,-0.85452 -1.171,0.61145 -1.6883,1.26813 -1.6883,2.14295 0,1.74476 0.7812,2.25173 4.9889,3.23704 4.6769,1.09517 6.9129,2.18164 8.5618,4.16037 3.82,4.58393 -0.8612,14.21037 -8.1683,16.79743 -2.8666,1.0149 -9.6674,1.48857 -12.1415,0.84563 z m 50.3109,-0.0146 c -8.0376,-2.46865 -10.5994,-10.09208 -6.3063,-18.76646 1.96,-3.96074 6.395,-8.184 9.8382,-9.36854 3.7339,-1.2847 9.002,-1.13135 11.8643,0.34534 3.5591,1.83624 4.5258,3.52678 4.5258,7.9148 0,3.35094 -0.1424,3.83247 -1.5934,5.3899 -2.4162,2.5931 -4.6217,3.2966 -11.2873,3.60053 -3.2866,0.14987 -5.9756,0.37534 -5.9756,0.50108 0,0.12574 0.234,0.67004 0.52,1.20957 1.1476,2.16518 6.074,2.74834 11.3952,1.34889 1.7097,-0.44965 3.1875,-0.73776 3.2841,-0.64024 0.5128,0.51772 -1.1565,4.52327 -2.4142,5.79316 -2.5164,2.54095 -9.7402,3.93448 -13.8508,2.67197 z m 10.531,-18.47997 c 1.418,-1.43174 0.1997,-2.70823 -2.7717,-2.90426 -2.2156,-0.14617 -2.6677,0.0242 -4.0621,1.53158 -0.863,0.93283 -1.5692,1.94431 -1.5692,2.24773 0,0.92336 7.3834,0.15449 8.403,-0.87505 z m 52.9769,18.18082 c -2.5268,-0.90894 -4.3726,-2.24718 -5.8406,-4.23494 -0.9198,-1.24538 -1.0951,-2.27073 -1.0951,-6.40268 0,-4.38998 0.1695,-5.25769 1.5743,-8.05712 1.696,-3.37979 5.3939,-7.11138 8.6295,-8.70835 1.2971,-0.64014 3.5239,-1.0582 6.2622,-1.17567 3.6176,-0.15521 4.6039,9.9e-4 6.6352,1.05633 3.2472,1.68578 4.7849,4.13689 4.7849,7.62804 0,3.83291 -1.3495,6.18642 -4.45,7.76111 -2.0711,1.05189 -3.597,1.32698 -8.5951,1.54969 -3.3423,0.14893 -6.077,0.43638 -6.077,0.63879 0,0.20244 0.5899,0.92746 1.3107,1.6112 2.0605,1.95454 7.1314,2.04918 12.9811,0.24229 1.2321,-0.3806 1.2662,-0.31933 0.948,1.70087 -0.8465,5.37182 -10.1823,8.8672 -17.0681,6.39044 z m 10.0614,-17.36738 c 1.1499,-0.24693 1.6434,-0.69775 1.7728,-1.61892 0.2265,-1.6131 -0.6649,-2.18388 -3.4266,-2.19426 -1.6593,-0.006 -2.522,0.33196 -3.5854,1.4057 -2.1321,2.15281 -1.8388,2.88764 1.1227,2.81317 1.3877,-0.0349 3.2401,-0.21745 4.1165,-0.40569 z m -96.9979,16.55948 c -2.6535,-1.41593 -3.8822,-4.15769 -3.4245,-7.64131 0.7756,-5.90274 3.6094,-19.02192 4.4894,-20.78433 1.1487,-2.29987 5.9149,-5.36317 8.3446,-5.36317 1.6856,0 1.6916,0.009 1.2313,2.01118 -0.9863,4.28837 -0.9337,4.35938 3.363,4.53521 3.7608,0.15388 3.8472,0.18898 3.6928,1.49836 -0.4726,4.00753 -2.5131,5.96504 -6.6926,6.42048 l -2.6016,0.2835 -0.9866,4.82685 c -0.5426,2.65478 -0.8541,5.39805 -0.6926,6.09616 0.2771,1.19655 0.4783,1.25585 3.5081,1.03457 l 3.2139,-0.23474 -0.345,2.18335 c -0.4582,2.89908 -1.5825,4.52393 -3.7684,5.44603 -2.5448,1.07365 -7.0149,0.92414 -9.3318,-0.31214 z m 184.5509,0.51315 c -0.9253,-0.28687 -2.2996,-1.2624 -3.0541,-2.16787 -2.1864,-2.62338 -1.9912,-4.41165 3.4565,-31.67716 0.5303,-2.65383 0.7828,-3.06495 2.0374,-3.31834 2.0006,-0.40397 5.4558,0.4748 6.2662,1.59364 1.0457,1.44418 0.8443,3.58121 -1.4441,15.32027 -1.1674,5.98744 -2.1233,10.92935 -2.1247,10.98204 0,0.0527 0.3732,0.47501 0.8323,0.93855 0.4787,0.4834 1.7347,0.84278 2.9454,0.84278 h 2.1108 l -0.3492,2.0112 c -0.4213,2.42568 -1.4477,4.18375 -2.901,4.96915 -1.5498,0.83745 -5.8116,1.11465 -7.7755,0.50574 z m -139.5352,-1.08919 c -1.8468,-1.46688 -1.8235,-3.2293 0.1712,-12.90055 1.2797,-6.20373 1.855,-7.97243 3.1036,-9.53937 4.0774,-5.11741 10.7952,-6.81653 14.6973,-3.71733 1.3736,1.09089 1.5987,2.24899 1.0126,5.20849 -0.3176,1.60265 -0.416,1.65804 -2.3843,1.34026 -2.5378,-0.40977 -4.9212,0.52106 -5.6887,2.2217 -0.4534,1.00449 -3.8127,17.05469 -3.8127,18.21581 0,0.1554 -1.2824,0.28255 -2.8497,0.28255 -2.0787,0 -3.2284,-0.30074 -4.2493,-1.11156 z m 18.1217,0.0494 c -0.7695,-0.61109 -1.5457,-1.57802 -1.7251,-2.14874 -0.4891,-1.55566 2.2698,-15.42242 3.7019,-18.60683 2.1934,-4.87742 8.142,-7.84239 13.2931,-6.6256 2.9783,0.70356 4.1412,2.30455 3.6872,5.07678 -0.4784,2.92283 -0.5157,2.96006 -2.6059,2.61758 -2.5433,-0.41674 -4.375,0.16169 -5.3705,1.69597 -0.4677,0.72053 -1.6105,5.24188 -2.54,10.04745 l -1.69,8.73741 -2.676,0.15853 c -2.0651,0.12233 -2.9951,-0.0951 -4.0747,-0.95255 z m 45.9299,0.2273 c -1.5301,-1.08214 -1.5483,-3.62238 -0.08,-11.30044 1.2802,-6.69818 2.3178,-9.0069 5.3858,-11.98354 2.9827,-2.8938 6.846,-4.30597 11.7801,-4.30597 5.8194,0 8.9435,1.41426 10.662,4.82686 1.3822,2.74398 1.314,5.05523 -0.419,14.21242 l -1.7254,9.11739 -3.2877,0.15936 c -1.808,0.0876 -3.771,-0.10189 -4.3618,-0.4211 -1.4056,-0.75956 -1.4081,-3.34816 -0.012,-10.6177 0.5833,-3.03395 1.0606,-5.97317 1.0606,-6.53159 0,-2.71496 -4.1721,-3.65732 -6.6153,-1.49416 -1.331,1.17844 -1.8979,3.24542 -4.8531,17.69848 -0.2864,1.40077 -0.4535,1.47487 -3.3283,1.47487 -1.8794,0 -3.4738,-0.31639 -4.207,-0.83488 z m 40.5872,-0.27667 c -1.7722,-1.40762 -1.7838,-2.67212 -0.1004,-10.87166 1.3946,-6.79054 2.8672,-10.01056 5.6659,-12.38835 2.9985,-2.54746 5.7295,-3.61503 9.9881,-3.9043 5.0944,-0.34603 8.2131,0.484 10.5019,2.79519 1.7559,1.77305 1.7584,1.78262 1.7584,7.14039 0,3.23032 -0.4207,7.46616 -1.0572,10.6459 -0.5816,2.90453 -1.0596,5.82397 -1.0625,6.48768 0,1.1227 -0.2369,1.2067 -3.3395,1.2067 -5.9749,0 -6.552,-1.23623 -4.6444,-9.94905 1.2664,-5.78367 1.3608,-8.98663 0.2914,-9.88266 -0.4303,-0.3606 -1.677,-0.65562 -2.7705,-0.65562 -3.2881,0 -4.5307,1.94016 -5.9309,9.26129 -0.645,3.37207 -1.428,7.2774 -1.7403,8.67854 l -0.5675,2.5475 h -2.7967 c -2.0251,0 -3.1829,-0.30668 -4.1963,-1.11155 z"
       id="path817"
       inkscape:connector-curvature="0" />
  </g>
</svg>
