<?xml version="1.0" encoding="UTF-8" standalone="no"?>
<!-- Created with Inkscape (http://www.inkscape.org/) -->

<svg
   xmlns:dc="http://purl.org/dc/elements/1.1/"
   xmlns:cc="http://creativecommons.org/ns#"
   xmlns:rdf="http://www.w3.org/1999/02/22-rdf-syntax-ns#"
   xmlns:svg="http://www.w3.org/2000/svg"
   xmlns="http://www.w3.org/2000/svg"
   xmlns:sodipodi="http://sodipodi.sourceforge.net/DTD/sodipodi-0.dtd"
   xmlns:inkscape="http://www.inkscape.org/namespaces/inkscape"
   width="475"
   height="321.52536"
   id="svg2"
   version="1.1"
   inkscape:version="0.92.4 (5da689c313, 2019-01-14)"
   sodipodi:docname="NPO_Radio_4_concerten_logo_2014.svg"
   >
  <defs
     id="defs4">
    <clipPath
       id="clipPath2999"
       clipPathUnits="userSpaceOnUse">
      <path
         id="path3001"
         d="m 0,124.725 187.087,0 L 187.087,0 0,0 0,124.725 z"
         inkscape:connector-curvature="0" />
    </clipPath>
  </defs>
  <sodipodi:namedview
     id="base"
     pagecolor="#ffffff"
     bordercolor="#666666"
     borderopacity="1.0"
     inkscape:pageopacity="0.0"
     inkscape:pageshadow="2"
     inkscape:zoom="3.9726456"
     inkscape:cx="130.69944"
     inkscape:cy="81.7985"
     inkscape:document-units="px"
     inkscape:current-layer="layer1"
     showgrid="false"
     fit-margin-top="5"
     fit-margin-right="5"
     fit-margin-left="5"
     fit-margin-bottom="5"
     inkscape:window-width="1680"
     inkscape:window-height="987"
     inkscape:window-x="-8"
     inkscape:window-y="-8"
     inkscape:window-maximized="1"
     inkscape:snap-bbox="false"
     inkscape:bbox-nodes="true"
     inkscape:bbox-paths="true"
     inkscape:snap-bbox-edge-midpoints="true"
     inkscape:snap-bbox-midpoints="true" />
  <metadata
     id="metadata7">
    <rdf:RDF>
      <cc:Work
         rdf:about="">
        <dc:format>image/svg+xml</dc:format>
        <dc:type
           rdf:resource="http://purl.org/dc/dcmitype/StillImage" />
        <dc:title />
      </cc:Work>
    </rdf:RDF>
  </metadata>
  <g
     inkscape:label="Ebene 1"
     inkscape:groupmode="layer"
     id="layer1"
     transform="translate(-543.61747,9.6552677)">
    <g
       transform="matrix(3.7696111,0,0,-3.7696111,428.49787,386.18932)"
       inkscape:label="NPO_RD4_Logo_CMYK"
       id="g2993">
      <g
         id="g2995">
        <g
           clip-path="url(#clipPath2999)"
           id="g2997">
          <g
             transform="translate(79.707,92.4277)"
             id="g3003">
            <path
               id="path3005"
               style="fill:#e6e6e6;fill-opacity:1;fill-rule:nonzero;stroke:none"
               d="M 0,0 -2.542,2.536 C -5.06,5.06 -8.093,5.104 -10.921,2.274 l -2.014,-2.016 c -2.831,-2.829 -2.784,-5.857 -0.266,-8.38 l 2.542,-2.535 c 2.52,-2.53 5.552,-2.573 8.38,0.256 l 2.013,2.018 C 2.566,-5.554 2.521,-2.524 0,0 m -12.734,-12.734 -2.545,2.534 c -2.52,2.523 -5.549,2.57 -8.377,-0.262 l -2.016,-2.017 c -2.83,-2.827 -2.786,-5.853 -0.265,-8.379 l 8.153,-8.149 c 0.942,-0.937 2.002,-0.8 2.725,-0.077 0.724,0.724 0.846,1.765 -0.093,2.708 l -1.876,1.871 c 0.51,0.108 1.138,0.497 1.877,1.234 l 2.151,2.155 c 2.834,2.828 2.785,5.855 0.266,8.382 m -10.107,-15.828 -5.4,5.397 c -2.523,2.523 -5.549,2.57 -8.381,-0.26 l -2.016,-2.013 c -2.83,-2.83 -2.785,-5.86 -0.261,-8.383 l 5.396,-5.403 c 0.944,-0.94 2,-0.799 2.725,-0.08 0.721,0.727 0.846,1.776 -0.097,2.711 l -5.35,5.356 c -1.014,1.011 -0.983,1.966 0.157,3.104 l 2.138,2.137 c 1.136,1.14 2.093,1.173 3.106,0.155 l 5.351,-5.349 c 0.937,-0.943 1.985,-0.817 2.708,-0.095 0.725,0.725 0.864,1.782 -0.076,2.723 m 55.115,-6.806 -33.491,-33.488 c -3.371,-3.373 -7.239,-3.373 -10.608,0 l -33.487,33.486 c -3.373,3.372 -3.373,7.237 0,10.609 l 33.488,33.485 c 3.373,3.375 7.237,3.375 10.607,0 l 33.488,-33.485 c 3.374,-3.369 3.374,-7.236 0.003,-10.607 m -37.395,35.23 c -1.018,1.015 -1.971,0.985 -3.108,-0.156 l -2.139,-2.139 c -1.136,-1.135 -1.169,-2.091 -0.151,-3.103 l 2.443,-2.447 c 1.016,-1.018 1.967,-0.987 3.108,0.154 l 2.138,2.139 c 1.134,1.134 1.167,2.093 0.153,3.104 l -2.444,2.448 z m -10.291,-15.184 c 1.014,-1.013 0.982,-1.97 -0.156,-3.104 l -2.137,-2.139 c -1.142,-1.139 -2.089,-1.17 -3.106,-0.153 l -2.446,2.447 c -1.015,1.012 -0.986,1.968 0.151,3.104 l 2.136,2.139 c 1.143,1.14 2.095,1.168 3.112,0.154 l 2.446,-2.448 z"
               inkscape:connector-curvature="0" />
          </g>
          <g
             transform="translate(64.2949,77.1055)"
             id="g3007">
            <path
               id="path3009"
               style="fill:#77216f;fill-opacity:1;fill-rule:nonzero;stroke:none"
               d="M 0,0 -2.446,2.448 C -3.463,3.462 -4.415,3.435 -5.558,2.294 L -7.694,0.155 C -8.831,-0.98 -8.86,-1.937 -7.845,-2.948 l 2.446,-2.448 c 1.017,-1.017 1.964,-0.986 3.106,0.153 l 2.137,2.139 C 0.982,-1.97 1.014,-1.013 0,0 M 2.678,2.588 C 5.197,0.062 5.246,-2.966 2.412,-5.794 L 0.261,-7.949 c -0.739,-0.737 -1.367,-1.126 -1.877,-1.234 l 1.876,-1.871 c 0.939,-0.943 0.817,-1.984 0.094,-2.708 -0.724,-0.722 -1.784,-0.86 -2.726,0.077 l -8.153,8.149 c -2.521,2.526 -2.565,5.553 0.265,8.38 l 2.016,2.016 c 2.828,2.832 5.857,2.786 8.377,0.262 L 2.678,2.588 z m 10.057,10.148 -2.444,2.449 C 9.273,16.199 8.32,16.169 7.183,15.028 L 5.044,12.89 C 3.908,11.754 3.875,10.798 4.894,9.786 L 7.336,7.339 C 8.353,6.321 9.303,6.353 10.444,7.493 l 2.138,2.139 c 1.134,1.135 1.167,2.094 0.153,3.104 m 2.677,2.586 C 17.933,12.798 17.979,9.769 15.146,6.939 L 13.133,4.921 C 10.305,2.092 7.273,2.136 4.753,4.665 L 2.211,7.2 c -2.518,2.524 -2.565,5.551 0.267,8.38 l 2.013,2.017 c 2.828,2.83 5.862,2.785 8.379,0.261 l 2.542,-2.536 z M -7.429,-13.239 c 0.94,-0.942 0.802,-1.998 0.076,-2.724 -0.723,-0.722 -1.771,-0.848 -2.708,0.095 l -5.351,5.349 c -1.013,1.018 -1.97,0.985 -3.106,-0.155 l -2.138,-2.137 c -1.14,-1.137 -1.171,-2.092 -0.157,-3.104 l 5.35,-5.356 c 0.943,-0.935 0.818,-1.984 0.097,-2.71 -0.725,-0.72 -1.78,-0.861 -2.725,0.08 l -5.396,5.402 c -2.524,2.523 -2.569,5.554 0.261,8.384 l 2.017,2.012 c 2.832,2.831 5.857,2.784 8.38,0.26 l 5.4,-5.396 z"
               inkscape:connector-curvature="0" />
          </g>
          <g
             transform="translate(75.1074,67.6675)"
             id="g3011">
            <path
               id="path3013"
               style="fill:#77216f;fill-opacity:1;fill-rule:nonzero;stroke:none"
               d="m 0,0 c -3.371,-3.371 -3.371,-7.236 0,-10.607 l 33.487,-33.489 c 3.373,-3.373 7.238,-3.373 10.612,0 l 33.487,33.489 c 3.371,3.371 3.367,7.238 0,10.607 L 44.099,33.485 c -3.374,3.374 -7.239,3.374 -10.609,0 L 0,0 z"
               inkscape:connector-curvature="0" />
          </g>
          <g
             transform="translate(108.5889,55.4844)"
             id="g3015">
            <path
               id="path3017"
               style="fill:#ffffff;fill-opacity:1;fill-rule:nonzero;stroke:none"
               d="m 0,0 c -0.52,-0.032 -0.82,0.272 -0.82,0.88 l 0,6.738 c 0,1.826 -1.248,3.344 -3.615,3.344 -2.37,0 -3.618,-1.518 -3.619,-3.342 l 10e-4,-10.842 c 0.001,-1.882 1.248,-3.4 3.678,-3.399 l 15.003,-10e-4 c 0.518,0 0.821,-0.277 0.82,-0.881 l 10e-4,-6.745 c 0,-1.822 1.242,-3.339 3.614,-3.339 2.369,0 3.613,1.517 3.612,3.34 l 0,21.865 c 0,1.826 -1.243,3.344 -3.612,3.344 -2.372,0 -3.614,-1.519 -3.615,-3.344 L 11.447,0.88 C 11.448,0.272 11.146,0.001 10.629,0.001 L 0,0 z"
               inkscape:connector-curvature="0" />
          </g>
          <g
             transform="translate(93.3291,78.6377)"
             id="g3019">
            <path
               id="path3021"
               style="fill:#ffffff;fill-opacity:1;fill-rule:nonzero;stroke:none"
               d="M 0,0 C 0,0.57 0.247,0.893 0.798,1.045 1.805,1.33 2.869,1.463 3.8,1.463 4.236,1.463 4.711,1.444 5.167,1.387 5.643,1.33 5.89,1.064 5.89,0.665 5.89,0.589 5.87,0.399 5.852,0.304 L 5.813,0.114 c -0.114,-0.532 -0.266,-0.76 -0.721,-0.76 -0.267,0 -0.741,0.076 -1.274,0.076 -0.456,0 -1.121,-0.057 -1.539,-0.19 l 0,-6.744 c 0,-0.589 -0.246,-0.836 -0.835,-0.836 l -0.608,0 C 0.247,-8.34 0,-8.093 0,-7.504 L 0,0 z"
               inkscape:connector-curvature="0" />
          </g>
          <g
             transform="translate(106.2861,74.4395)"
             id="g3023">
            <path
               id="path3025"
               style="fill:#ffffff;fill-opacity:1;fill-rule:nonzero;stroke:none"
               d="m 0,0 c -0.438,0.133 -1.026,0.209 -1.634,0.209 -1.501,0 -2.222,-0.456 -2.222,-1.444 0,-0.969 0.703,-1.406 2.26,-1.406 0.551,0 1.158,0.057 1.596,0.19 L 0,0 z m -5.205,4.122 c -0.058,0.152 -0.076,0.285 -0.076,0.399 0,0.361 0.265,0.551 0.531,0.665 0.646,0.285 1.938,0.475 3.002,0.475 2.66,0 4.009,-1.159 4.009,-3.952 l 0,-4.73 c 0,-0.684 -0.342,-0.874 -0.818,-0.988 -0.645,-0.152 -2.26,-0.323 -3.343,-0.323 -2.641,0 -4.255,1.007 -4.255,3.116 0,2.128 1.652,3.096 4.103,3.096 C -1.083,1.88 -0.38,1.729 0,1.634 L 0,1.918 C 0,3.096 -0.589,3.78 -2.128,3.78 -2.888,3.78 -3.477,3.609 -4.027,3.438 -4.198,3.381 -4.351,3.343 -4.483,3.343 c -0.304,0 -0.475,0.171 -0.647,0.589 l -0.075,0.19 z"
               inkscape:connector-curvature="0" />
          </g>
          <g
             transform="translate(117.0596,77.9346)"
             id="g3027">
            <path
               id="path3029"
               style="fill:#ffffff;fill-opacity:1;fill-rule:nonzero;stroke:none"
               d="m 0,0 c -0.342,0.114 -0.874,0.19 -1.349,0.19 -1.995,0 -2.849,-1.216 -2.849,-3.04 0,-1.823 0.854,-3.039 2.849,-3.039 0.475,0 1.007,0.076 1.349,0.19 L 0,0 z m 0,5.016 c 0,0.588 0.247,0.835 0.836,0.835 l 0.607,0 c 0.589,0 0.836,-0.247 0.836,-0.835 l 0,-11.475 c 0,-0.627 -0.303,-0.874 -0.778,-1.026 -0.627,-0.209 -1.919,-0.342 -2.812,-0.342 -3.419,0 -5.205,1.9 -5.205,4.958 0,3.116 1.862,5.035 4.901,5.035 0.684,0 1.235,-0.095 1.615,-0.209 l 0,3.059 z"
               inkscape:connector-curvature="0" />
          </g>
          <g
             transform="translate(121.791,79.0747)"
             id="g3031">
            <path
               id="path3033"
               style="fill:#ffffff;fill-opacity:1;fill-rule:nonzero;stroke:none"
               d="m 0,0 c 0,0.589 0.247,0.836 0.836,0.836 l 0.608,0 C 2.033,0.836 2.279,0.589 2.279,0 l 0,-7.941 c 0,-0.589 -0.246,-0.836 -0.835,-0.836 l -0.608,0 C 0.247,-8.777 0,-8.53 0,-7.941 L 0,0 z m 1.14,4.901 c 0.836,0 1.406,-0.551 1.406,-1.368 0,-0.817 -0.57,-1.367 -1.406,-1.367 -0.836,0 -1.406,0.55 -1.406,1.367 0,0.817 0.57,1.368 1.406,1.368"
               inkscape:connector-curvature="0" />
          </g>
          <g
             transform="translate(133.6455,75.104)"
             id="g3035">
            <path
               id="path3037"
               style="fill:#ffffff;fill-opacity:1;fill-rule:nonzero;stroke:none"
               d="m 0,0 c 0,1.938 -0.874,3.04 -2.451,3.04 -1.576,0 -2.45,-1.102 -2.45,-3.04 0,-1.957 0.874,-3.04 2.45,-3.04 C -0.874,-3.04 0,-1.957 0,0 m -7.219,0 c 0,3.249 1.88,4.997 4.768,4.997 2.888,0 4.768,-1.748 4.768,-4.997 0,-3.268 -1.88,-4.996 -4.768,-4.996 -2.888,0 -4.768,1.728 -4.768,4.996"
               inkscape:connector-curvature="0" />
          </g>
        </g>
      </g>
    </g>
    <rect
       style="opacity:1;fill:#e6e6e6;fill-opacity:1;fill-rule:nonzero;stroke:none;stroke-width:5.31305695;stroke-linecap:square;stroke-linejoin:miter;stroke-miterlimit:4;stroke-dasharray:none;stroke-dashoffset:0;stroke-opacity:1;paint-order:markers stroke fill"
       id="rect4592"
       width="299.77707"
       height="48.936157"
       x="633.64935"
       y="257.59744" />
    <g
       aria-label="Concerten"
       transform="matrix(1.5887521,0,0,1.5887521,475.33234,-158.30492)"
       style="font-style:normal;font-variant:normal;font-weight:normal;font-stretch:normal;font-size:40px;line-height:1.25;font-family:'Myanmar Text';-inkscape-font-specification:'Myanmar Text';letter-spacing:0px;word-spacing:0px;fill:#77216f;fill-opacity:1;stroke:none"
       id="flowRoot837">
      <path
         d="m 126.47266,282.38867 q -0.52735,4.51172 -3.33985,6.97266 -2.79297,2.4414 -7.4414,2.4414 -5.03907,0 -8.08594,-3.61328 -3.02734,-3.61328 -3.02734,-9.66797 v -2.73437 q 0,-3.96484 1.40625,-6.97266 1.42578,-3.00781 4.02343,-4.60937 2.59766,-1.6211 6.01563,-1.6211 4.53125,0 7.26562,2.53907 2.73438,2.51953 3.1836,6.99218 h -3.76953 q -0.48829,-3.39843 -2.12891,-4.92187 -1.62109,-1.52344 -4.55078,-1.52344 -3.59375,0 -5.64453,2.65625 -2.03125,2.65625 -2.03125,7.5586 v 2.7539 q 0,4.62891 1.93359,7.36328 1.93359,2.73438 5.41016,2.73438 3.125,0 4.78515,-1.40625 1.67969,-1.42578 2.22657,-4.94141 z"
         style="font-style:normal;font-variant:normal;font-weight:normal;font-stretch:normal;font-family:Roboto;-inkscape-font-specification:Roboto;fill:#77216f;fill-opacity:1"
         id="path4571" />
      <path
         d="m 130.04687,280.65039 q 0,-3.10547 1.21094,-5.58594 1.23047,-2.48047 3.39844,-3.82812 2.1875,-1.34766 4.98047,-1.34766 4.3164,0 6.97265,2.98828 2.67579,2.98828 2.67579,7.94922 v 0.25391 q 0,3.08594 -1.19141,5.54687 -1.17188,2.44141 -3.37891,3.8086 -2.1875,1.36718 -5.03906,1.36718 -4.29687,0 -6.97266,-2.98828 -2.65625,-2.98828 -2.65625,-7.91015 z m 3.63282,0.42969 q 0,3.51562 1.62109,5.64453 1.64063,2.12891 4.375,2.12891 2.75391,0 4.375,-2.14844 1.62109,-2.16797 1.62109,-6.05469 0,-3.47656 -1.66015,-5.625 -1.64063,-2.16797 -4.375,-2.16797 -2.67578,0 -4.31641,2.12891 -1.64062,2.1289 -1.64062,6.09375 z"
         style="font-style:normal;font-variant:normal;font-weight:normal;font-stretch:normal;font-family:Roboto;-inkscape-font-specification:Roboto;fill:#77216f;fill-opacity:1"
         id="path4573" />
      <path
         d="m 157.23437,270.2793 0.11719,2.65625 q 2.42188,-3.04688 6.32813,-3.04688 6.69922,0 6.75781,7.5586 v 13.96484 h -3.61328 v -13.98438 q -0.0195,-2.28515 -1.05469,-3.3789 -1.01562,-1.09375 -3.18359,-1.09375 -1.75782,0 -3.08594,0.9375 -1.32813,0.9375 -2.07031,2.46094 v 15.05859 h -3.61328 V 270.2793 Z"
         style="font-style:normal;font-variant:normal;font-weight:normal;font-stretch:normal;font-family:Roboto;-inkscape-font-specification:Roboto;fill:#77216f;fill-opacity:1"
         id="path4575" />
      <path
         d="m 184.40234,288.85352 q 1.9336,0 3.37891,-1.17188 1.44531,-1.17187 1.60156,-2.92969 h 3.41797 q -0.0977,1.81641 -1.25,3.45703 -1.15234,1.64063 -3.08594,2.61719 -1.91406,0.97656 -4.0625,0.97656 -4.3164,0 -6.875,-2.87109 -2.53906,-2.89062 -2.53906,-7.89062 v -0.60547 q 0,-3.08594 1.13281,-5.48828 1.13282,-2.40235 3.24219,-3.73047 2.12891,-1.32813 5.01953,-1.32813 3.55469,0 5.89844,2.12891 2.36328,2.1289 2.51953,5.52734 h -3.41797 q -0.15625,-2.05078 -1.5625,-3.35937 -1.38672,-1.32813 -3.4375,-1.32813 -2.7539,0 -4.27734,1.99219 -1.50391,1.97266 -1.50391,5.72266 v 0.68359 q 0,3.65234 1.50391,5.625 1.5039,1.97266 4.29687,1.97266 z"
         style="font-style:normal;font-variant:normal;font-weight:normal;font-stretch:normal;font-family:Roboto;-inkscape-font-specification:Roboto;fill:#77216f;fill-opacity:1"
         id="path4577" />
      <path
         d="m 205.63281,291.80273 q -4.29687,0 -6.99219,-2.8125 -2.69531,-2.83203 -2.69531,-7.55859 v -0.66406 q 0,-3.14453 1.19141,-5.60547 1.21094,-2.48047 3.35937,-3.86719 2.16797,-1.40625 4.6875,-1.40625 4.1211,0 6.40625,2.71485 2.28516,2.71484 2.28516,7.77343 v 1.50391 h -14.31641 q 0.0781,3.125 1.81641,5.05859 1.75781,1.91407 4.45312,1.91407 1.91407,0 3.24219,-0.78125 1.32813,-0.78125 2.32422,-2.07032 l 2.20703,1.71875 q -2.65625,4.08203 -7.96875,4.08203 z m -0.44922,-18.94531 q -2.1875,0 -3.67187,1.60156 -1.48438,1.58204 -1.83594,4.45313 h 10.58594 v -0.27344 q -0.15625,-2.7539 -1.48438,-4.25781 -1.32812,-1.52344 -3.59375,-1.52344 z"
         style="font-style:normal;font-variant:normal;font-weight:normal;font-stretch:normal;font-family:Roboto;-inkscape-font-specification:Roboto;fill:#77216f;fill-opacity:1"
         id="path4579" />
      <path
         d="m 228.25,273.52148 q -0.82031,-0.13671 -1.77734,-0.13671 -3.55469,0 -4.82422,3.02734 v 15 h -3.61328 V 270.2793 h 3.51562 l 0.0586,2.4414 q 1.77735,-2.83203 5.03907,-2.83203 1.05468,0 1.60156,0.27344 z"
         style="font-style:normal;font-variant:normal;font-weight:normal;font-stretch:normal;font-family:Roboto;-inkscape-font-specification:Roboto;fill:#77216f;fill-opacity:1"
         id="path4581" />
      <path
         d="m 237.46875,265.16211 v 5.11719 h 3.94531 v 2.79297 h -3.94531 v 13.10546 q 0,1.26954 0.52734,1.91407 0.52735,0.625 1.79688,0.625 0.625,0 1.71875,-0.23438 v 2.92969 q -1.42578,0.39062 -2.77344,0.39062 -2.42187,0 -3.65234,-1.46484 -1.23047,-1.46484 -1.23047,-4.16016 v -13.10546 h -3.84766 v -2.79297 h 3.84766 v -5.11719 z"
         style="font-style:normal;font-variant:normal;font-weight:normal;font-stretch:normal;font-family:Roboto;-inkscape-font-specification:Roboto;fill:#77216f;fill-opacity:1"
         id="path4583" />
      <path
         d="m 254.38281,291.80273 q -4.29687,0 -6.99219,-2.8125 -2.69531,-2.83203 -2.69531,-7.55859 v -0.66406 q 0,-3.14453 1.19141,-5.60547 1.21094,-2.48047 3.35937,-3.86719 2.16797,-1.40625 4.6875,-1.40625 4.1211,0 6.40625,2.71485 2.28516,2.71484 2.28516,7.77343 v 1.50391 h -14.31641 q 0.0781,3.125 1.81641,5.05859 1.75781,1.91407 4.45312,1.91407 1.91407,0 3.24219,-0.78125 1.32813,-0.78125 2.32422,-2.07032 l 2.20703,1.71875 q -2.65625,4.08203 -7.96875,4.08203 z m -0.44922,-18.94531 q -2.1875,0 -3.67187,1.60156 -1.48438,1.58204 -1.83594,4.45313 h 10.58594 v -0.27344 q -0.15625,-2.7539 -1.48438,-4.25781 -1.32812,-1.52344 -3.59375,-1.52344 z"
         style="font-style:normal;font-variant:normal;font-weight:normal;font-stretch:normal;font-family:Roboto;-inkscape-font-specification:Roboto;fill:#77216f;fill-opacity:1"
         id="path4585" />
      <path
         d="m 270.20312,270.2793 0.11719,2.65625 q 2.42188,-3.04688 6.32813,-3.04688 6.69922,0 6.75781,7.5586 v 13.96484 h -3.61328 v -13.98438 q -0.0195,-2.28515 -1.05469,-3.3789 -1.01562,-1.09375 -3.18359,-1.09375 -1.75782,0 -3.08594,0.9375 -1.32813,0.9375 -2.07031,2.46094 v 15.05859 h -3.61328 V 270.2793 Z"
         style="font-style:normal;font-variant:normal;font-weight:normal;font-stretch:normal;font-family:Roboto;-inkscape-font-specification:Roboto;fill:#77216f;fill-opacity:1"
         id="path4587" />
    </g>
   </g>
</svg>
