<?xml version="1.0" encoding="UTF-8" standalone="no"?>
<!-- Created with Inkscape (http://www.inkscape.org/) -->

<svg
   xmlns:dc="http://purl.org/dc/elements/1.1/"
   xmlns:cc="http://creativecommons.org/ns#"
   xmlns:rdf="http://www.w3.org/1999/02/22-rdf-syntax-ns#"
   xmlns:svg="http://www.w3.org/2000/svg"
   xmlns="http://www.w3.org/2000/svg"
   xmlns:xlink="http://www.w3.org/1999/xlink"
   xmlns:sodipodi="http://sodipodi.sourceforge.net/DTD/sodipodi-0.dtd"
   xmlns:inkscape="http://www.inkscape.org/namespaces/inkscape"
   version="1.1"
   id="svg2"
   width="480"
   height="394.66666"
   viewBox="0 0 480 394.66666"
   sodipodi:docname="NPO_Radio_2_Soul_&amp;_Jazz_logo_2020.svg"
   inkscape:version="0.92.4 (5da689c313, 2019-01-14)">
  <metadata
     id="metadata8">
    <rdf:RDF>
      <cc:Work
         rdf:about="">
        <dc:format>image/svg+xml</dc:format>
        <dc:type
           rdf:resource="http://purl.org/dc/dcmitype/StillImage" />
        <dc:title></dc:title>
      </cc:Work>
    </rdf:RDF>
  </metadata>
  <defs
     id="defs6">
    <clipPath
       id="clipPath18">
      <path
         id="path20"
         inkscape:connector-curvature="0"
         d="m 0,0 1870.88,0 0,1247 L 0,1247 0,0 z" />
    </clipPath>
    <defs
       id="defs3221">
      <polyline
         points="0,0 226.484,0 226.66,226.719 0.18,226.719"
         id="SVGID_1_" />
    </defs>
    <clipPath
       id="SVGID_2_">
      <use
         id="use3225"
         overflow="visible"
         xlink:href="#SVGID_1_"
         style="overflow:visible"
         x="0"
         y="0"
         width="1"
         height="1" />
    </clipPath>
    <clipPath
       id="clipPath18-8">
      <path
         id="path20-8"
         inkscape:connector-curvature="0"
         d="m 0,0 1870.88,0 0,1247 L 0,1247 0,0 z" />
    </clipPath>
    <defs
       id="defs3221-9">
      <polyline
         points="0,0 226.484,0 226.66,226.719 0.18,226.719"
         id="SVGID_1_-4" />
    </defs>
    <clipPath
       id="SVGID_2_-4">
      <use
         id="use3225-0"
         overflow="visible"
         xlink:href="#SVGID_1_-4"
         style="overflow:visible"
         x="0"
         y="0"
         width="1"
         height="1" />
    </clipPath>
    <clipPath
       id="clipPath2999"
       clipPathUnits="userSpaceOnUse">
      <path
         id="path3001"
         d="m 0,124.725 187.086,0 L 187.086,0 0,0 0,124.725 z"
         inkscape:connector-curvature="0" />
    </clipPath>
    <polyline
       points="0,0 226.484,0 226.66,226.719 0.18,226.719"
       id="polyline4565" />
    <polyline
       points="0,0 226.484,0 226.66,226.719 0.18,226.719"
       id="polyline4567" />
  </defs>
  <sodipodi:namedview
     pagecolor="#ffffff"
     bordercolor="#666666"
     borderopacity="1"
     objecttolerance="10"
     gridtolerance="10"
     guidetolerance="10"
     inkscape:pageopacity="0"
     inkscape:pageshadow="2"
     inkscape:window-width="1680"
     inkscape:window-height="987"
     id="namedview4"
     showgrid="false"
     inkscape:zoom="0.48176535"
     inkscape:cx="422.24739"
     inkscape:cy="343.67956"
     inkscape:window-x="-8"
     inkscape:window-y="-8"
     inkscape:window-maximized="1"
     inkscape:current-layer="svg2" />
  <g
     transform="matrix(1.0272892,0,0,1.0272892,-159.47509,-198.79491)"
     id="layer1"
     inkscape:label="Ebene 1">
    <g
       style="fill:#e6e6e6;fill-opacity:1"
       transform="matrix(0.54674441,0,0,0.54674441,153.18678,187.00033)"
       id="layer1-9">
      <rect
         width="429.96051"
         height="429.96051"
         ry="45.945595"
         x="201.53545"
         y="-209.43587"
         transform="rotate(45)"
         id="rect3273"
         style="fill:#e6e6e6;fill-opacity:1;fill-rule:nonzero;stroke:none" />
    </g>
    <path
       transform="matrix(1.4539851,0,0,1.4539851,302.03691,187.57808)"
       id="path3227"
       d="M 10.078,99.156 99.25,9.98 c 7.035,-7.031 18.465,-7.031 25.531,0 l 89.508,89.176 c 7.059,7.035 7.078,18.438 0.047,25.48 l -89.18,89.168 c -7.027,7.031 -18.457,7.031 -25.516,0 L 10.128,124.636 c -7.066,-7.042 -7.085,-18.445 -0.05,-25.48"
       clip-path="url(#SVGID_2_)"
       inkscape:connector-curvature="0"
       style="fill:#d9151b;fill-opacity:1" />
    <path
       sodipodi:nodetypes="sssssccsscssssscscscssssssssssssssssssssscssscsssssccsssscsccscsscssscssssccsss"
       inkscape:connector-curvature="0"
       d="m 500.42393,278.92481 c -3.15718,0 -5.3098,-2.08011 -5.3098,-5.16477 0,-3.08618 2.15262,-5.16629 5.3098,-5.16629 3.15717,0 5.3098,2.08011 5.3098,5.16629 0,3.08466 -2.15263,5.16477 -5.3098,5.16477 z m -89.6929,8.68149 -0.14464,0.71678 c -0.43241,2.00949 -1.00607,2.86941 -2.72477,2.86941 -1.00757,0 -2.79991,-0.28778 -4.80903,-0.28778 -1.72322,0 -4.23386,0.21715 -5.81245,0.71868 v 25.46776 c 0,2.22476 -0.93091,3.15869 -3.15415,3.15869 h -2.2984 c -2.22286,0 -3.15529,-0.93393 -3.15529,-3.15869 v -28.33868 c 0,-2.15073 0.93243,-3.36942 3.01254,-3.94458 3.80296,-1.07556 7.82119,-1.5801 11.33676,-1.5801 1.64769,0 3.44003,0.0725 5.16326,0.28928 1.79688,0.21526 2.7293,1.21831 2.7293,2.72477 0,0.28739 -0.074,1.00455 -0.14313,1.36446 z m 93.99436,29.48485 c 0,2.22476 -0.92902,3.15869 -3.1534,3.15869 h -2.29613 c -2.22437,0 -3.15717,-0.93393 -3.15717,-3.15869 v -29.98789 c 0,-2.22475 0.9328,-3.1568 3.15717,-3.1568 h 2.29613 c 2.22438,0 3.1534,0.93205 3.1534,3.1568 z m 26.90869,-33.85653 c -10.90283,0 -18,6.60733 -18,18.875 0,12.34018 7.09717,18.84375 18,18.84375 10.90661,0 18,-6.50357 18,-18.84375 0,-12.26767 -7.09339,-18.875 -18,-18.875 z m 0,7.375 c 5.95559,0 9.25,4.17996 9.25,11.5 0,7.38915 -3.29441,11.46875 -9.25,11.46875 -5.9518,0 -9.25,-4.0796 -9.25,-11.46875 0,-7.32004 3.2982,-11.5 9.25,-11.5 z m -50.21875,-21.3125 c -2.22437,0 -3.15625,0.93301 -3.15625,3.15625 v 11.5625 c -1.43508,-0.42939 -3.53808,-0.78125 -6.125,-0.78125 -11.47687,0 -18.5,7.23385 -18.5,19 0,11.54937 6.74053,18.71875 19.65625,18.71875 3.37244,0 8.25712,-0.49196 10.625,-1.28125 1.79008,-0.57403 2.9375,-1.50561 2.9375,-3.875 v -43.34375 c 0,-2.22324 -0.93188,-3.15625 -3.15625,-3.15625 z m -8.25,21.40625 c 1.79385,0 3.80217,0.28671 5.09375,0.71875 v 21.5 c -1.29158,0.42901 -3.2999,0.71875 -5.09375,0.71875 -7.53417,0 -10.78125,-4.58225 -10.78125,-11.46875 0,-6.88763 3.24708,-11.46875 10.78125,-11.46875 z m -42.1875,-7.46875 c -4.01444,0 -8.90034,0.70456 -11.34375,1.78125 -1.00078,0.42939 -2,1.16793 -2,2.53125 0,0.43053 0.0622,0.92597 0.28125,1.5 l 0.28125,0.71875 c 0.64956,1.57859 1.28944,2.21875 2.4375,2.21875 0.50228,0 1.07296,-0.15974 1.71875,-0.375 2.08086,-0.64617 4.31734,-1.28125 7.1875,-1.28125 5.81208,0 8.03125,2.58363 8.03125,7.03125 v 1.09375 c -1.43508,-0.35877 -4.09055,-0.9375 -7.75,-0.9375 -9.25627,0 -15.5,3.6518 -15.5,11.6875 0,7.96318 6.08869,11.75 16.0625,11.75 4.08998,0 10.18914,-0.64623 12.625,-1.21875 1.79763,-0.43203 3.09375,-1.13712 3.09375,-3.71875 v -17.875 c 0,-10.54632 -5.07943,-14.90625 -15.125,-14.90625 z m 0.40625,20.59375 c 2.29613,0 4.53716,0.27935 6.1875,0.78125 v 9.25 c -1.65034,0.50303 -3.95039,0.71875 -6.03125,0.71875 -5.88006,0 -8.53125,-1.65078 -8.53125,-5.3125 0,-3.72932 2.70643,-5.4375 8.375,-5.4375 z"
       style="fill:#ffffff;fill-opacity:1;fill-rule:nonzero;stroke:none"
       id="path3823" />
    <path
       sodipodi:nodetypes="cccccccccccccccccccccccccccccccccccccccccccccccccccccc"
       inkscape:connector-curvature="0"
       id="path3966"
       style="fill:#d9151b;fill-opacity:1;fill-rule:nonzero;stroke:none"
       d="m 326.49974,258.16411 -8.07232,8.07837 c -4.31204,4.306 -7.89974,4.42534 -11.73971,0.58272 l -9.22304,-9.24381 c -3.84753,-3.8192 -3.72214,-7.43069 0.56799,-11.71894 l 8.07497,-8.07837 c 4.29731,-4.30599 7.8971,-4.42118 11.73971,-0.58838 l 9.2321,9.24494 c 3.82676,3.81807 3.701,7.43938 -0.5797,11.72347 z m 10.68758,-21.48919 -9.60069,-9.57728 c -9.5059,-9.5312 -20.96086,-9.69925 -31.64314,0.9887 l -7.60291,7.61499 c -10.69399,10.68493 -10.51687,22.1161 -1.00758,31.6473 l 9.60031,9.57274 c 9.51836,9.55197 20.96577,9.71851 31.64617,-0.96491 l 7.60479,-7.62367 c 10.69513,-10.68342 10.52103,-22.12365 1.00305,-31.65787 m -48.09143,48.09143 -9.60975,-9.56935 c -9.51799,-9.53006 -20.9552,-9.7068 -31.6356,0.98832 l -7.61347,7.61499 c -10.68946,10.67738 -10.52292,22.1059 -1.00192,31.64768 l 30.79192,30.77114 c 3.55673,3.54049 7.55758,3.02122 10.29103,0.2923 2.73081,-2.73231 3.19268,-6.66519 -0.35235,-10.22645 l -7.08703,-7.06589 c 1.9283,-0.40597 4.30185,-1.87806 7.09006,-4.65872 l 8.12368,-8.13879 c 10.70268,-10.6804 10.51839,-22.11497 1.00343,-31.65523 z m -10.11279,9.77327 c 3.82978,3.82525 3.71006,7.43976 -0.58989,11.72083 l -8.06931,8.0795 c -4.31355,4.30185 -7.88803,4.41967 -11.72951,0.57668 l -9.23928,-9.24192 c -3.83091,-3.82071 -3.72176,-7.4322 0.57252,-11.72045 l 8.06478,-8.07686 c 4.31959,-4.30751 7.91145,-4.41098 11.75444,-0.58423 l 9.23625,9.24645 m -28.05695,49.99782 -20.39023,-20.38003 c -9.52969,-9.52817 -20.95519,-9.7068 -31.65069,0.98266 l -7.61499,7.60026 c -10.68607,10.68795 -10.51952,22.13233 -0.9853,31.6624 l 20.37852,20.40042 c 3.56542,3.5522 7.55305,3.02123 10.29104,0.30401 2.72174,-2.74553 3.19531,-6.70484 -0.36897,-10.23816 l -20.2014,-20.22482 c -3.8294,-3.82071 -3.7161,-7.42767 0.59027,-11.72498 l 8.07648,-8.0693 c 4.28712,-4.30487 7.90276,-4.43025 11.72952,-0.58574 l 20.20895,20.20139 c 3.53747,3.55976 7.49414,3.08316 10.22759,0.3584 2.73798,-2.7395 3.26141,-6.73128 -0.29079,-10.28651" />
    <g
       inkscape:label="Ebene 1"
       id="layer1-5"
       transform="matrix(0.9934712,0,0,0.9934712,-37.711657,-340.63969)">
      <g
         transform="matrix(3.7951917,0,0,-3.7951917,73.519447,932.25372)"
         inkscape:label="NPO_RD2_Logo_CMYK"
         id="g2993">
        <g
           id="g2995">
          <g
             clip-path="url(#clipPath2999)"
             id="g2997">
            <g
               transform="translate(75.1074,67.6675)"
               id="g3011" />
            <g
               transform="translate(123.585,48.8633)"
               id="g3015">
              <path
                 id="path3017"
                 style="fill:#ffffff;fill-opacity:1;fill-rule:nonzero;stroke:none"
                 d="m 0,0 c 2.433,0.001 3.676,1.518 3.676,3.399 v 10.782 c 0,1.884 -1.242,3.403 -3.676,3.403 h -19.465 c -2.371,0 -3.585,-1.486 -3.584,-3.311 -0.002,-1.821 1.213,-3.311 3.583,-3.312 h 15.093 c 0.518,0 0.821,-0.273 0.822,-0.878 L -3.552,7.502 C -3.551,6.895 -3.855,6.623 -4.375,6.623 h -15.001 c -2.431,0 -3.675,-1.521 -3.675,-3.404 V -7.563 c 0.002,-1.884 1.246,-3.4 3.676,-3.4 l 19.466,-0.001 c 2.368,0 3.585,1.49 3.585,3.313 0,1.819 -1.217,3.307 -3.584,3.307 h -15.096 c -0.516,0 -0.816,0.273 -0.816,0.882 v 2.581 c 0,0.604 0.3,0.881 0.817,0.881 z"
                 inkscape:connector-curvature="0" />
            </g>
          </g>
        </g>
      </g>
    </g>
  </g>
  <path
     style="fill:#d9151b;stroke-width:0.56756788;fill-opacity:1"
     d="m 57.149511,392.04943 -3.121622,-1.21006 -1.277027,-1.16342 -1.277027,-1.16343 v -0.38872 -0.38873 l 2.318512,-2.63396 2.318502,-2.63397 0.661231,0.002 0.66122,0.002 2.792138,1.41653 2.792137,1.41654 h 1.918482 1.918483 l 1.657692,-0.85723 1.657692,-0.85722 0.632661,-1.18212 0.63265,-1.18213 -0.331097,-1.31918 -0.331086,-1.31918 -1.845548,-1.10119 -1.845547,-1.1012 -5.513935,-2.10367 -5.513936,-2.10368 -1.423654,-1.69191 -1.423655,-1.69192 -0.688601,-2.29833 -0.6886,-2.29835 0.643111,-3.06602 0.6431,-3.06602 1.505969,-1.97443 1.505969,-1.97442 3.206847,-1.57483 3.206836,-1.57482 h 5.108118 5.108107 l 2.837843,1.41891 2.837832,1.41892 0.194314,1.04936 0.194325,1.04936 -1.613241,1.69544 -1.61323,1.69542 -0.93112,0.50545 -0.931109,0.50544 -2.661217,-0.90676 -2.661195,-0.90676 -2.366264,0.31738 -2.366252,0.31738 -1.277914,1.48566 -1.277914,1.48566 v 0.78806 0.78805 l 1.277027,1.46755 1.277027,1.46754 5.359183,2.00861 5.359194,2.00861 1.606371,1.14383 1.606361,1.14384 1.122296,2.19987 1.122285,2.19985 -0.01244,3.00234 -0.01244,3.00236 -1.047793,2.27026 -1.047803,2.27027 -1.358973,1.2493 -1.358963,1.24932 -2.830779,1.26298 -2.830768,1.263 -4.540539,0.18792 -4.540549,0.18793 z m 43.986519,0.44296 -2.270272,-0.75337 -1.87851,-0.97886 -1.878488,-0.97885 -2.267776,-2.0488 -2.267786,-2.0488 -1.405123,-2.39767 -1.405113,-2.39765 -0.835434,-4.00674 -0.835423,-4.00672 0.521386,-3.68167 0.521386,-3.68167 1.510524,-3.36591 1.510534,-3.3659 2.368427,-2.31672 2.368416,-2.3167 3.317137,-1.51388 3.317135,-1.51388 4.69332,-0.29281 4.69332,-0.2928 3.05712,0.7198 3.05712,0.71979 2.27027,1.11836 2.27028,1.11835 2.83783,2.93519 2.83784,2.93521 1.56081,4.08817 1.56082,4.08816 -0.004,3.27448 -0.004,3.27448 -1.07326,3.52908 -1.07326,3.5291 -1.15523,1.8628 -1.15524,1.8628 -1.88204,1.7958 -1.88203,1.79578 -3.66961,1.85009 -3.6696,1.85008 -5.69527,0.18263 -5.69527,0.18265 -2.27026,-0.7534 z m 11.68192,-8.04581 2.51926,-0.8584 1.47336,-1.26998 1.47337,-1.26998 1.26507,-2.48459 1.26508,-2.48459 0.30669,-2.97157 0.30669,-2.97159 -0.95388,-2.87187 -0.95388,-2.87187 -2.46349,-2.27078 -2.4635,-2.27077 -2.1878,-0.60747 -2.18781,-0.6075 h -1.98648 -1.98648 l -2.21496,0.61499 -2.21496,0.61498 -2.487471,2.36159 -2.48748,2.36158 -0.824627,3.12162 -0.824616,3.12162 -0.0065,1.17402 -0.0065,1.17401 0.883391,2.97467 0.88338,2.97467 1.987815,2.20029 1.987818,2.20027 2.37881,0.84271 2.3788,0.84273 2.31105,0.0448 2.31106,0.0448 2.51926,-0.8584 z m 35.73179,7.68629 -3.09985,-1.15221 h -0.13635 -0.13636 l -2.0908,-2.12837 -2.09082,-2.12839 -1.33637,-2.83784 -1.33638,-2.83784 -0.005,-13.93379 -0.005,-13.93379 0.68108,-0.68108 0.68108,-0.68108 h 2.93861 2.93862 l 0.58979,0.71064 0.58979,0.71066 0.18916,13.33665 0.18942,13.33666 1.07995,1.59351 1.07994,1.5935 2.28356,1.16499 2.28356,1.16498 2.50266,-0.28209 2.50266,-0.28209 1.8583,-1.80113 1.8583,-1.80114 0.64716,-2.16004 0.64717,-2.16003 V 365.0621 353.18064 l 0.68109,-0.68108 0.68107,-0.68108 h 2.8946 2.8946 l 0.68108,0.68108 0.68108,0.68108 v 13.77572 13.77571 l -1.36449,2.99591 -1.36449,2.99592 -1.85702,1.9207 -1.85703,1.92069 -2.54956,1.1278 -2.54958,1.12779 -4.58702,0.2321 -4.58704,0.23209 z m 87.66744,0.58734 -1.7027,-0.41451 -1.93119,-1.00565 -1.93117,-1.00565 -1.47423,-1.71408 -1.47423,-1.71409 -0.68386,-1.49008 -0.68386,-1.49009 -0.0256,-2.46828 -0.0256,-2.46828 0.92392,-1.947 0.92391,-1.94701 3.10573,-2.72422 3.10573,-2.72421 -1.82156,-2.58428 -1.82156,-2.58427 -0.29104,-2.58197 -0.29103,-2.58199 1.24308,-2.56784 1.24307,-2.56784 3.45755,-1.72777 3.45757,-1.72776 h 3.33298 3.33299 l 2.1024,0.87845 2.10241,0.87843 1.3387,1.24994 1.3387,1.24994 0.79742,1.53262 0.79742,1.53264 v 2.27174 2.27175 l -0.68757,1.58753 -0.68757,1.58751 -2.71784,2.77703 -2.71783,2.77702 v 0.22744 0.22743 l 2.07766,2.24554 2.07766,2.24555 h 0.47702 0.47703 l 2.23181,-2.29973 2.2318,-2.29973 3.29584,0.17135 3.29583,0.17135 0.17987,0.9457 0.17987,0.94569 -2.8703,4.02258 -2.8703,4.02257 v 0.89842 0.89843 l 3.47448,3.61831 3.47448,3.61831 -0.33504,0.8731 -0.33505,0.87312 h -3.46053 -3.46053 l -1.20396,-0.64435 -1.20396,-0.64433 -1.13602,-1.05837 -1.13602,-1.05837 h -0.79861 -0.79861 l -1.61093,1.1471 -1.61092,1.14708 -2.37914,0.8394 -2.37911,0.8394 -2.90838,-0.0581 -2.90838,-0.0581 z m 8.65541,-7.97657 1.8446,-1.12468 v -0.98374 -0.98374 l -2.96035,-2.99758 -2.96034,-2.99757 h -1.24596 -1.24596 l -1.46938,1.74625 -1.46937,1.74624 v 1.70283 1.70281 l 1.65905,1.65905 1.65903,1.65904 2.17205,-0.002 2.17204,-0.002 1.84459,-1.12467 z m 0.31949,-20.32783 1.52511,-1.59188 v -1.62695 -1.62695 l -0.93932,-1.03794 -0.93932,-1.03794 h -1.56832 -1.56832 l -0.94125,0.3612 -0.94124,0.36119 -0.51004,1.34151 -0.51005,1.34151 0.59303,1.55977 0.59302,1.55978 0.89981,0.99429 0.89982,0.99427 h 0.94098 0.94099 z m 44.86356,28.2937 -1.78319,-0.42523 -1.906,-1.18018 -1.906,-1.18017 -0.99324,-1.68758 -0.99325,-1.68759 v -0.83618 -0.83617 l 0.83526,-0.69321 0.83526,-0.6932 2.13973,-0.48258 2.13973,-0.4826 2.67554,1.71689 2.67553,1.71689 1.58597,-0.75914 1.58596,-0.75914 0.67743,-1.97983 0.67743,-1.97983 0.032,-13.65002 0.032,-13.65 0.68108,-0.68108 0.68108,-0.68108 h 2.8946 2.89459 l 0.68108,0.68108 0.68109,0.68108 v 14.82402 14.82402 l -0.86422,2.91014 -0.86422,2.91014 -2.04212,1.68329 -2.04212,1.68329 -2.45311,0.61769 -2.4531,0.6177 -2.16083,-0.0581 -2.16084,-0.0581 z m -102.06209,-0.48379 -3.38578,-0.17387 -0.72909,-0.60509 -0.7291,-0.60509 v -18.83051 -18.83052 l 0.68109,-0.68108 0.68108,-0.68108 h 2.47785 2.47785 l 1.09783,0.58754 1.09782,0.58753 v 14.69625 14.69626 l 0.009,1.75706 1.77547,0.0267 h 6.65676 6.65675 l 0.68109,0.68108 0.68108,0.68108 v 3.02593 3.02592 l -0.81429,0.31247 -0.81428,0.31247 -7.55735,0.0954 -7.55733,0.0954 z m 125.44465,-0.57734 -0.32849,-1.03498 0.80118,-1.66096 0.8012,-1.66097 1.82606,-4.25676 1.82603,-4.25676 0.98831,-2.27027 0.98825,-2.27027 2.59078,-5.95946 2.59078,-5.95947 1.81213,-4.25676 1.81218,-4.25676 0.87326,-0.99324 0.87332,-0.99324 h 2.96418 2.96413 l 0.65298,0.7868 0.65301,0.7868 2.29864,5.31456 2.29865,5.31455 2.5666,5.95946 2.56661,5.95947 0.41301,0.56756 0.41297,0.56756 1.03223,2.83785 1.03224,2.83784 1.61524,3.23879 1.61524,3.23878 -0.11606,1.40273 -0.11614,1.40273 -0.44713,-0.27636 -0.44718,-0.27636 5.7e-4,0.45916 v 0.45918 l -3.26431,-0.19799 -3.26386,-0.19799 -0.80124,-0.65336 -0.80122,-0.65336 -1.30621,-2.94855 -1.3062,-2.94856 -1.11873,-0.59875 -1.11879,-0.59874 h -6.76022 -6.76013 l -0.86758,0.99325 -0.86758,0.99323 -0.66519,2.07343 -0.66519,2.07343 -1.36597,1.47387 -1.36591,1.47388 h -3.39428 -3.39425 z m 24.05943,-15.96122 0.8209,-0.51935 -2.16025,-5.45796 -2.16021,-5.45795 -0.5729,0.19097 -0.57291,0.19097 -1.98161,4.95186 -1.98154,4.95185 0.69981,0.84318 0.69975,0.84317 3.19399,-0.009 3.19405,-0.009 0.82092,-0.51936 z m 33.27505,16.55703 -10.17433,-0.15539 -0.75134,-0.62357 -0.75135,-0.62356 v -3.25076 -3.25074 l 1.61303,-2.21355 1.61308,-2.21353 4.48827,-5.12005 4.48832,-5.12004 3.5473,-4.3392 3.5473,-4.33919 v -0.89887 -0.89888 h -8.47299 -8.47294 l -0.89193,-0.8919 -0.89188,-0.89189 v -1.9054 -1.90541 l 0.89188,-0.89189 0.89193,-0.89189 h 13.75132 13.75138 l 0.68108,0.68108 0.68108,0.68108 v 2.76164 2.76163 l -0.65225,1.2188 -0.6523,1.21879 -3.46257,4.0529 -3.46261,4.05291 -2.55049,3.04476 -2.55047,3.04477 -2.23526,2.85569 -2.23524,2.85569 -0.40752,0.28378 -0.40757,0.28379 -0.1986,1.13514 -0.19865,1.13513 9.04091,0.15683 9.04095,0.15681 0.7496,0.62214 0.74963,0.62213 v 2.69885 2.69885 l -0.86276,0.71605 -0.86281,0.71604 -4.1034,0.063 -4.10346,0.0629 z m 39.15134,0.0435 -11.32036,-0.1966 -0.90516,-0.81918 -0.90516,-0.81916 0.31637,-3.30884 0.31636,-3.30884 1.12531,-1.48309 1.12538,-1.48309 8.72454,-10.37866 8.72448,-10.37865 -1.06231,-0.41746 -1.06238,-0.41745 -7.76353,-0.0399 -7.76347,-0.0399 -0.89194,-0.89189 -0.89187,-0.89189 v -2.11622 -2.11621 l 0.68107,-0.68108 0.68108,-0.68109 h 13.75138 13.75138 l 0.89187,0.8919 0.89188,0.89189 v 2.25234 2.25235 l -1.0894,2.1354 -1.08944,2.13542 -2.51966,2.80819 -2.51966,2.80819 -6.06077,7.31487 -6.06072,7.31486 0.20903,0.63109 0.20904,0.63108 9.19908,0.28379 9.19903,0.28378 0.5368,0.85136 0.53687,0.85135 0.009,2.0199 0.009,2.0199 -0.70946,0.94656 -0.70946,0.94657 -3.12162,0.1975 -3.12164,0.19751 -11.32035,-0.19661 z"
     id="path4610"
     inkscape:connector-curvature="0"
     sodipodi:nodetypes="cccccccccccccccccccccccccccccccccccccccccccccccccccccccccccccccccccccccccccccccccccccccccccccccccccccccccccccccccccccccccccccccccccccccccccccccccccccccccccccccccccccccccccccccccccccccccccccccccccccccccccccccccccccccccccccccccccccccccccccccccccccccccccccccccccccccccccccccccccccccccccccccccccccccccccccccccccccccccccccccccccccccccccccccccccccccccccccccccccccccccccccccccccccccccccccccccccccccccccccccccccccccccccccccccccccccccccccccccccccccccccccccccccccccccccccccccccccccccccccccccccccccccccccccccccccccccccccccccccccccccccccccccc" />
</svg>
