<?xml version="1.0" encoding="UTF-8" standalone="no"?>
<!-- Created with Inkscape (http://www.inkscape.org/) -->

<svg
   xmlns:dc="http://purl.org/dc/elements/1.1/"
   xmlns:cc="http://creativecommons.org/ns#"
   xmlns:rdf="http://www.w3.org/1999/02/22-rdf-syntax-ns#"
   xmlns:svg="http://www.w3.org/2000/svg"
   xmlns="http://www.w3.org/2000/svg"
   xmlns:xlink="http://www.w3.org/1999/xlink"
   xmlns:sodipodi="http://sodipodi.sourceforge.net/DTD/sodipodi-0.dtd"
   xmlns:inkscape="http://www.inkscape.org/namespaces/inkscape"
   width="475.09879"
   height="475.09879"
   id="svg2"
   version="1.1"
   inkscape:version="0.92.4 (5da689c313, 2019-01-14)"
   sodipodi:docname="NPO_Radio_logo_2014_Black.svg"
   inkscape:export-filename="D:\NPORadioswitcher\img\icon\icon_large.png"
   inkscape:export-xdpi="1010.3157"
   inkscape:export-ydpi="1010.3157">
  <defs
     id="defs4">
    <clipPath
       id="clipPath18">
      <path
         d="M 0,0 H 1870.88 V 1247 H 0 Z"
         inkscape:connector-curvature="0"
         id="path20" />
    </clipPath>
    <defs
       id="defs3221">
      <polyline
         id="SVGID_1_"
         points="0,0 226.484,0 226.66,226.719 0.18,226.719" />
    </defs>
    <clipPath
       id="SVGID_2_">
      <use
         height="1"
         width="1"
         y="0"
         x="0"
         style="overflow:visible"
         xlink:href="#SVGID_1_"
         overflow="visible"
         id="use3225" />
    </clipPath>
  </defs>
  <sodipodi:namedview
     id="base"
     pagecolor="#ffffff"
     bordercolor="#666666"
     borderopacity="1.0"
     inkscape:pageopacity="0.0"
     inkscape:pageshadow="2"
     inkscape:zoom="1.25866"
     inkscape:cx="290.62426"
     inkscape:cy="254.61899"
     inkscape:document-units="px"
     inkscape:current-layer="layer1"
     showgrid="false"
     fit-margin-top="5"
     fit-margin-left="5"
     fit-margin-right="5"
     fit-margin-bottom="5"
     inkscape:window-width="1680"
     inkscape:window-height="987"
     inkscape:window-x="-8"
     inkscape:window-y="-8"
     inkscape:window-maximized="1" />
  <metadata
     id="metadata7">
    <rdf:RDF>
      <cc:Work
         rdf:about="">
        <dc:format>image/svg+xml</dc:format>
        <dc:type
           rdf:resource="http://purl.org/dc/dcmitype/StillImage" />
        <dc:title></dc:title>
      </cc:Work>
    </rdf:RDF>
  </metadata>
  <g
     inkscape:label="Ebene 1"
     inkscape:groupmode="layer"
     id="layer1"
     transform="translate(-151.22783,-36.01434)">
    <path
       style="fill:#070707;fill-opacity:1"
       inkscape:connector-curvature="0"
       clip-path="url(#SVGID_2_)"
       d="M 10.078,99.156 99.25,9.98 c 7.035,-7.031 18.465,-7.031 25.531,0 l 89.508,89.176 c 7.059,7.035 7.078,18.438 0.047,25.48 l -89.18,89.168 c -7.027,7.031 -18.457,7.031 -25.516,0 L 10.128,124.636 c -7.066,-7.042 -7.085,-18.445 -0.05,-25.48"
       id="path3227"
       transform="matrix(2.212014,0,0,2.2162518,140.57667,25.582886)" />
    <path
       id="path3823"
       style="fill:#ffffff;fill-opacity:1;fill-rule:nonzero;stroke:none;stroke-width:2.39584589"
       d="m 469.68398,235.55621 c -7.55689,0 -12.70931,-4.98839 -12.70931,-12.38583 0,-7.40109 5.15242,-12.3895 12.70931,-12.3895 7.55685,0 12.70929,4.98841 12.70929,12.3895 0,7.39744 -5.15244,12.38583 -12.70929,12.38583 z m -214.68483,20.81943 -0.34621,1.71894 c -1.03499,4.81904 -2.40808,6.88125 -6.52189,6.88125 -2.41165,0 -6.70173,-0.69015 -11.51066,-0.69015 -4.12461,0 -10.13398,0.52077 -13.91242,1.7235 v 61.07525 c 0,5.33528 -2.22819,7.57498 -7.54962,7.57498 H 209.657 c -5.32054,0 -7.55236,-2.2397 -7.55236,-7.57498 v -67.96012 c 0,-5.15774 2.23182,-8.08033 7.21067,-9.45964 9.1026,-2.57935 18.72045,-3.78931 27.13516,-3.78931 3.94383,0 8.23391,0.17387 12.35854,0.69374 4.30094,0.51622 6.53273,2.92167 6.53273,6.53438 0,0.68919 -0.17712,2.40905 -0.34259,3.27216 z m 224.98061,70.70879 c 0,5.33528 -2.22367,7.57498 -7.54784,7.57498 H 466.936 c -5.32414,0 -7.55686,-2.2397 -7.55686,-7.57498 v -71.91515 c 0,-5.33526 2.23272,-7.57045 7.55686,-7.57045 h 5.49592 c 5.32417,0 7.54784,2.23519 7.54784,7.57045 z m 64.40741,-81.19269 c -26.09652,0 -43.08399,15.84531 -43.08399,45.26489 0,29.59347 16.98747,45.18995 43.08399,45.18995 26.10555,0 43.08397,-15.59648 43.08397,-45.18995 0,-29.41958 -16.97842,-45.26489 -43.08397,-45.26489 z m 0,17.68629 c 14.25501,0 22.14038,10.02412 22.14038,27.5786 0,17.72021 -7.88537,27.50367 -22.14038,27.50367 -14.24596,0 -22.14038,-9.78346 -22.14038,-27.50367 0,-17.55448 7.89442,-27.5786 22.14038,-27.5786 z M 424.18586,212.46766 c -5.32416,0 -7.55466,2.2375 -7.55466,7.56913 v 27.7285 c -3.43494,-1.02974 -8.46859,-1.87355 -14.66052,-1.87355 -27.4705,0 -44.28074,17.34778 -44.28074,45.56466 0,27.69699 16.13381,44.89018 47.04829,44.89018 8.07211,0 19.76386,-1.1798 25.43152,-3.07263 4.28465,-1.37659 7.03104,-3.61065 7.03104,-9.29278 V 220.03679 c 0,-5.33163 -2.23048,-7.56913 -7.55464,-7.56913 z m -19.74682,51.33518 c 4.29366,0 9.10069,0.68757 12.19216,1.72368 v 51.56001 c -3.09147,1.02882 -7.8985,1.72366 -12.19216,1.72366 -18.03345,0 -25.80551,-10.98889 -25.80551,-27.50368 0,-16.5175 7.77206,-27.50367 25.80551,-27.50367 z m -100.97808,-17.9111 c -9.60878,0 -21.30346,1.68963 -27.15187,4.2717 -2.39542,1.02972 -4.78712,2.80085 -4.78712,6.07027 0,1.03247 0.14899,2.22061 0.67318,3.59722 l 0.67321,1.72366 c 1.55475,3.78568 3.08634,5.32087 5.83427,5.32087 1.20225,0 2.56819,-0.38308 4.11392,-0.8993 4.98067,-1.54961 10.33379,-3.07262 17.20368,-3.07262 13.91153,0 19.22324,6.19591 19.22324,16.86193 v 2.62296 c -3.43496,-0.86038 -9.79097,-2.24826 -18.55006,-2.24826 -22.15538,0 -37.10008,8.75753 -37.10008,28.02825 0,19.09684 14.5736,28.17816 38.44645,28.17816 9.7896,0 24.38827,-1.54975 30.21864,-2.92273 4.30272,-1.03607 7.40506,-2.72698 7.40506,-8.91809 v -42.86675 c 0,-25.29153 -12.15791,-35.74727 -36.20252,-35.74727 z m 0.97239,49.38669 c 5.49591,0 10.85994,0.66994 14.81012,1.87355 v 22.1828 c -3.95018,1.20632 -9.45549,1.72366 -14.43613,1.72366 -14.07424,0 -20.42001,-3.95882 -20.42001,-12.74011 0,-8.94344 6.47798,-13.0399 20.04602,-13.0399 z"
       inkscape:connector-curvature="0"
       sodipodi:nodetypes="sssssccsscssssscscscssssssssssssssssssssscssscsssssccsssscsccscsscssscssssccsss" />
  </g>
</svg>
